<?xml version="1.0" standalone="no"?>
<!DOCTYPE svg PUBLIC "-//W3C//DTD SVG 20010904//EN"
 "http://www.w3.org/TR/2001/REC-SVG-20010904/DTD/svg10.dtd">
<svg version="1.0" xmlns="http://www.w3.org/2000/svg"
 width="1024.000000pt" height="1024.000000pt" viewBox="0 0 1024.000000 1024.000000"
 preserveAspectRatio="xMidYMid meet">

<g transform="translate(0.000000,1024.000000) scale(0.100000,-0.100000)"
fill="#000000" stroke="none">
<path d="M3055 8593 c-358 -23 -673 -159 -921 -395 -128 -123 -211 -236 -289
-393 -72 -145 -105 -240 -138 -395 l-22 -105 0 -1990 c0 -1094 3 -2035 7
-2090 16 -210 98 -454 219 -652 168 -274 456 -494 789 -603 250 -82 25 -75
2400 -75 l2115 0 130 28 c350 77 594 205 801 420 192 199 311 426 374 717 41
186 41 214 37 2260 -3 1813 -5 1982 -20 2060 -56 279 -155 503 -302 687 -215
268 -520 438 -915 511 -75 13 -327 15 -2150 17 -1136 1 -2087 0 -2115 -2z
m4042 -42 c299 -24 570 -112 770 -248 137 -93 290 -250 368 -378 26 -43 8 -22
-58 66 -69 92 -198 217 -289 281 -96 67 -104 70 -105 49 -1 -11 13 -27 35 -39
20 -12 64 -47 97 -77 l60 -56 -65 51 c-36 28 -86 63 -113 77 -35 19 -44 29
-35 36 9 6 8 7 -4 3 -9 -2 -75 19 -146 49 -148 61 -251 89 -413 112 -102 15
-321 17 -2019 20 -1975 5 -2102 2 -2279 -36 -219 -48 -404 -137 -573 -276
-119 -98 -162 -144 -254 -272 -124 -172 -212 -412 -233 -637 l-8 -81 -2 65
c-2 74 -14 106 -26 68 -4 -12 -11 -156 -15 -318 l-7 -295 2 315 c3 294 5 323
28 430 89 411 357 760 723 943 160 80 398 139 634 156 171 13 3764 6 3927 -8z
m-1016 -214 c-1 -12 -15 -9 -19 4 -3 6 1 10 8 8 6 -3 11 -8 11 -12z m769 -17
c0 -15 -7 -20 -25 -20 -24 0 -34 18 -18 33 15 15 43 7 43 -13z m-3090 -10 c0
-11 -4 -20 -9 -20 -11 0 -22 26 -14 34 12 12 23 5 23 -14z m1890 -10 c18 -34
8 -73 -22 -88 -53 -25 -97 33 -63 84 20 31 69 33 85 4z m732 -26 c4 -21 7 -97
7 -169 l1 -129 96 -94 97 -93 36 26 c20 14 51 39 70 55 l33 29 -21 45 c-21 42
-21 46 -6 76 10 20 22 30 31 26 7 -3 13 0 11 6 -1 6 4 13 12 16 9 3 11 0 6 -8
-5 -9 -2 -10 14 -6 11 3 30 8 40 12 37 10 60 -27 58 -91 -2 -49 -7 -61 -30
-81 -16 -13 -38 -24 -49 -24 -19 0 -72 -36 -150 -102 l-27 -23 6 -167 c6 -163
7 -168 30 -183 51 -34 63 -70 63 -200 l1 -120 45 -33 c25 -19 43 -36 40 -40
-4 -3 -19 7 -34 21 -40 39 -62 34 -26 -5 l29 -32 -45 36 -45 36 -7 128 -7 129
-41 38 -41 38 -6 167 c-7 198 -4 192 -132 310 l-91 83 0 186 c0 143 3 184 12
181 7 -3 16 -22 20 -44z m-1832 15 c0 -5 -4 -9 -10 -9 -5 0 -10 7 -10 16 0 8
5 12 10 9 6 -3 10 -10 10 -16z m3275 11 c3 -5 1 -10 -4 -10 -6 0 -11 5 -11 10
0 6 2 10 4 10 3 0 8 -4 11 -10z m-1593 -143 c4 -171 -4 -323 -17 -320 -6 2
-11 90 -13 233 -2 198 0 229 12 224 12 -5 16 -33 18 -137z m-1178 120 c11 -8
17 -23 14 -38 -2 -19 -9 -24 -33 -24 -24 0 -31 5 -33 23 -7 48 16 65 52 39z
m2006 -17 c11 -7 15 -29 16 -87 0 -43 2 -185 4 -316 l3 -239 -103 -96 -103
-97 2 -330 c0 -181 1 -345 1 -362 0 -18 5 -33 11 -33 15 0 126 107 210 203
l69 77 0 126 c0 118 -1 127 -22 145 -13 11 -33 24 -45 29 -13 5 -23 15 -23 21
0 9 4 8 14 0 12 -10 13 -7 7 21 -6 24 -4 37 6 46 7 7 13 21 13 31 0 14 10 20
43 25 80 12 127 -25 127 -99 -1 -42 -13 -65 -44 -82 -19 -10 -20 -16 -24 -213
l-2 -76 -131 -139 c-71 -76 -137 -152 -146 -169 -18 -37 -65 -82 -93 -91 -11
-3 -35 -18 -53 -33 -17 -15 -26 -19 -18 -9 17 21 9 22 -32 1 -29 -14 -27 -11
16 29 42 40 47 50 46 84 -1 21 3 71 10 112 8 52 10 175 6 395 l-5 321 105 93
105 93 0 314 c0 173 3 315 8 315 4 0 14 -5 22 -10z m-2992 -168 c-2 -67 -7
-122 -12 -122 -8 0 -16 223 -8 248 3 8 8 10 14 4 5 -5 7 -63 6 -130z m1197 87
c0 -28 -29 -38 -39 -13 -7 19 11 47 28 41 6 -2 11 -14 11 -28z m-1770 11 c3
-5 1 -10 -4 -10 -6 0 -11 -8 -11 -17 0 -16 -1 -16 -16 -1 -9 9 -13 21 -10 27
9 14 33 14 41 1z m3050 0 c10 -16 -5 -50 -21 -50 -17 0 -28 24 -20 45 6 17 32
20 41 5z m-2671 -16 c3 -9 6 -74 6 -145 0 -104 -3 -129 -14 -129 -8 0 -17 7
-20 16 -8 21 -8 259 1 267 11 11 20 8 27 -9z m982 -15 c14 -15 16 -24 8 -37
-25 -39 -82 -14 -70 31 8 33 35 35 62 6z m2399 -12 c14 -11 16 -20 10 -43 -5
-16 -10 -105 -12 -198 l-4 -168 91 -87 90 -86 0 -150 -1 -150 -63 -55 c-36
-30 -73 -55 -83 -55 -10 -1 -24 -4 -31 -8 -29 -19 -7 9 62 76 l74 72 -5 125
-4 125 -90 85 -89 85 0 211 c0 234 6 256 55 221z m-4150 -16 c6 -18 -12 -61
-26 -61 -13 0 -27 47 -17 63 12 23 35 21 43 -2z m2821 -8 c6 -20 2 -31 -16
-45 -28 -23 -50 -9 -50 32 0 33 7 40 36 40 17 0 25 -7 30 -27z m2089 -13 c10
-11 16 -20 13 -20 -3 0 -13 9 -23 20 -10 11 -16 20 -13 20 3 0 13 -9 23 -20z
m-5266 -125 c1 -80 -1 -92 -19 -103 -20 -12 -20 -10 -20 92 0 57 -3 111 -6
119 -3 10 1 17 13 19 25 5 31 -19 32 -127z m751 125 c0 -5 -4 -10 -10 -10 -5
0 -10 5 -10 10 0 6 5 10 10 10 6 0 10 -4 10 -10z m200 -123 c0 -68 -3 -127 -7
-131 -9 -9 -31 119 -32 185 -1 41 11 69 31 69 4 0 8 -55 8 -123z m810 87 c0
-45 -24 -42 -28 4 -2 24 1 32 12 32 12 0 16 -10 16 -36z m-199 -104 c5 -25 23
-64 39 -86 16 -23 27 -44 24 -46 -2 -3 2 -11 11 -18 8 -7 15 -19 15 -26 0 -8
9 -14 20 -14 21 0 28 -19 8 -21 -7 0 3 -6 22 -12 19 -5 28 -12 20 -13 -8 -1
-32 -5 -53 -9 -21 -3 -35 -10 -32 -15 3 -5 1 -11 -4 -15 -6 -3 -8 -11 -5 -19
5 -13 -41 -66 -57 -66 -5 0 -8 -3 -7 -7 5 -14 -25 -92 -33 -88 -4 3 -11 31
-15 62 -5 46 -13 62 -43 91 -20 20 -35 39 -34 44 2 4 -6 8 -17 8 -11 0 -20 7
-20 15 0 10 10 15 27 15 24 0 25 1 9 13 -16 12 -15 18 21 88 27 52 43 101 52
159 l14 85 14 -40 c8 -22 18 -60 24 -85z m866 79 c34 -29 -2 -89 -52 -89 -41
0 -58 46 -34 92 9 16 17 19 41 14 17 -3 37 -11 45 -17z m873 1 c13 -24 -2 -60
-25 -60 -23 0 -46 40 -34 62 13 24 46 23 59 -2z m-560 0 c48 -26 29 -117 -28
-134 -45 -13 -72 12 -72 67 0 65 46 96 100 67z m-1973 -96 c5 -91 -3 -144 -21
-144 -17 0 -28 208 -13 228 18 24 30 -5 34 -84z m-942 14 c0 -62 -15 -102 -31
-86 -9 10 -18 124 -10 143 3 9 14 15 23 13 15 -3 18 -15 18 -70z m355 33 c0
-5 -7 -14 -15 -21 -18 -15 -42 1 -31 19 8 13 46 15 46 2z m4615 -35 c0 -36
-26 -56 -49 -37 -19 16 -21 57 -3 65 30 12 52 1 52 -28z m-4218 -12 c22 -29
14 -155 -11 -183 -25 -27 -41 -26 -71 4 -23 22 -25 32 -25 108 0 46 3 86 6 89
13 14 87 1 101 -18z m1647 4 c13 -19 14 -25 2 -43 -15 -22 -43 -28 -38 -7 1 6
-5 12 -13 12 -21 0 -19 37 3 49 24 15 29 14 46 -11z m1104 -61 c3 -22 -1 -27
-17 -27 -23 0 -24 3 -15 38 8 30 28 23 32 -11z m-1455 0 c3 -8 1 -20 -4 -28
-8 -12 -10 -12 -19 1 -5 8 -10 21 -10 28 0 16 27 16 33 -1z m-1505 -126 c3
-107 -4 -141 -28 -141 -9 0 -14 236 -4 251 3 5 11 8 17 6 8 -2 13 -42 15 -116z
m2183 93 c11 -10 29 -33 40 -51 l21 -33 -26 -45 c-15 -24 -34 -49 -44 -54 -14
-9 -15 -12 -3 -20 17 -11 6 -45 -12 -38 -6 3 -38 13 -70 23 -40 12 -66 27 -88
52 -27 31 -30 40 -25 75 8 47 39 95 70 107 35 13 115 4 137 -16z m484 -14 c30
-58 14 -90 -47 -90 -40 0 -58 19 -58 60 0 40 18 60 55 60 28 0 37 -6 50 -30z
m-2871 -2 c3 -13 6 -72 6 -131 0 -81 -4 -112 -14 -123 -8 -8 -17 -11 -19 -7
-9 14 -12 258 -4 271 12 18 24 15 31 -10z m-529 -94 c0 -77 -2 -89 -17 -92
-16 -3 -18 6 -18 86 0 49 3 92 7 96 20 19 28 -7 28 -90z m5560 6 c-9 -14 -25
5 -25 30 0 12 3 12 16 -2 9 -9 13 -21 9 -28z m-5200 -82 c9 -142 5 -182 -17
-186 -14 -3 -16 13 -20 135 -4 149 -3 163 17 163 9 0 15 -31 20 -112z m4979
93 c39 -43 25 -135 -25 -161 -19 -11 -20 -19 -18 -213 l2 -201 -141 -137 -142
-136 0 -214 c-1 -152 -4 -219 -13 -230 -13 -17 -151 -131 -227 -188 l-45 -33
44 39 c55 49 52 74 -4 37 -36 -23 -37 -23 -14 -2 14 13 46 39 70 58 24 19 65
55 92 79 l47 44 0 214 0 214 147 143 146 144 -6 179 -6 180 -35 35 c-26 26
-36 45 -36 68 0 35 15 69 39 87 26 20 105 16 125 -6z m186 -1 c0 -11 -4 -20
-9 -20 -5 0 -7 9 -4 20 3 11 7 20 9 20 2 0 4 -9 4 -20z m-3816 -26 c32 -16 65
-38 73 -50 15 -23 32 -183 33 -302 0 -88 -16 -127 -68 -163 l-37 -27 -3 -153
c-2 -85 -6 -156 -8 -158 -11 -11 -13 16 -15 152 -1 170 10 160 -112 101 -38
-18 -76 -42 -84 -54 -17 -24 -74 -28 -92 -6 -20 24 -9 69 22 86 25 14 30 13
57 -2 31 -17 31 -17 118 31 48 27 106 61 130 75 l42 25 0 133 c0 165 -8 197
-61 239 -55 43 -128 55 -212 34 -34 -8 -91 -19 -127 -24 -36 -5 -91 -19 -122
-31 -57 -21 -185 -107 -175 -117 3 -3 18 7 34 21 15 15 64 45 108 67 67 33 93
41 160 45 44 3 82 10 85 14 3 5 18 12 33 15 23 6 27 4 27 -13 0 -12 -9 -22
-22 -26 -15 -4 -19 -9 -12 -13 32 -23 39 -93 8 -93 -19 0 -34 33 -34 75 0 30
-3 35 -16 27 -9 -5 -26 -7 -37 -4 -17 4 -18 2 -8 -17 7 -11 8 -21 4 -21 -4 0
-2 -4 5 -8 10 -7 10 -14 -1 -35 -8 -15 -17 -24 -21 -20 -3 4 -27 7 -52 9 -34
1 -47 -2 -52 -14 -3 -9 0 -18 6 -20 17 -5 15 -22 -2 -22 -8 0 -16 -7 -20 -15
-3 -8 -13 -15 -21 -15 -10 0 -13 -5 -9 -11 5 -8 -1 -10 -20 -7 -14 3 -26 1
-26 -3 0 -5 -4 -9 -9 -9 -5 0 -7 18 -4 40 4 27 2 40 -6 40 -7 0 -9 -9 -5 -25
4 -15 1 -32 -7 -42 -12 -14 -16 -33 -19 -96 -1 -10 -10 -23 -21 -30 -23 -14
-26 -32 -3 -23 10 4 14 2 11 -6 -2 -7 -9 -12 -16 -11 -7 2 -9 -13 -5 -45 10
-87 12 -90 90 -142 42 -29 79 -62 84 -76 6 -14 10 -70 10 -125 0 -99 0 -99
-25 -99 -24 0 -25 2 -25 68 0 119 -7 141 -59 176 -25 17 -62 47 -83 66 -33 31
-39 42 -45 99 -5 37 -13 66 -21 69 -7 2 -10 -2 -7 -10 3 -7 -8 -21 -26 -31
-18 -10 -29 -20 -26 -24 6 -6 -34 -32 -58 -37 -5 -2 -22 -8 -38 -14 -55 -23
-94 -21 -119 5 -13 14 -32 30 -43 35 -11 6 16 -26 60 -71 63 -64 86 -81 108
-81 70 0 88 -48 39 -104 -26 -30 -28 -37 -26 -112 1 -43 3 -105 3 -136 1 -57
1 -58 55 -100 29 -24 88 -72 130 -106 76 -63 77 -64 102 -47 l26 17 -24 -33
c-12 -17 -18 -33 -13 -35 6 -2 9 -30 7 -63 -4 -57 -3 -60 26 -75 33 -17 42
-34 42 -76 0 -68 -83 -99 -135 -50 -32 30 -32 70 0 109 24 28 25 35 19 96 l-7
67 -61 51 c-34 28 -93 74 -132 103 l-71 53 -8 168 c-7 173 -15 203 -53 203
-10 0 -13 7 -9 21 8 29 -32 86 -94 139 l-49 42 -80 -4 -80 -3 0 -91 c0 -87 1
-91 25 -102 14 -6 32 -27 41 -45 14 -30 15 -38 3 -63 -28 -58 -95 -69 -139
-22 -26 28 -26 68 1 102 18 23 20 38 18 144 -1 65 1 124 5 130 4 7 1 12 -8 12
-22 0 -123 -39 -165 -63 -198 -115 -292 -267 -293 -475 0 -110 11 -134 137
-292 l79 -100 93 0 93 0 0 51 c0 45 -4 55 -41 94 -22 24 -54 62 -71 84 -16 23
-38 41 -48 41 -10 0 -32 12 -49 26 -40 33 -42 80 -6 122 24 29 25 35 25 165 0
150 3 167 31 167 11 0 22 7 25 15 4 8 18 15 33 15 15 0 31 8 38 19 6 10 24 22
40 26 15 3 34 11 40 17 19 16 16 48 -4 48 -15 0 -16 2 -3 10 8 5 18 10 21 10
13 0 19 -33 13 -64 -4 -25 -11 -32 -31 -34 -30 -2 -53 -19 -53 -38 0 -8 -4
-14 -8 -14 -5 0 -30 -16 -55 -36 l-47 -37 0 -77 c0 -117 9 -167 31 -173 10 -3
27 -19 36 -36 l18 -31 121 0 c148 0 184 6 184 31 0 43 79 63 125 33 23 -15 25
-15 31 0 3 9 11 16 17 16 5 0 3 -8 -6 -18 -17 -19 -23 -37 -9 -28 12 7 5 -70
-9 -95 -10 -20 -9 -21 9 -17 15 4 19 2 15 -8 -3 -9 -21 -14 -49 -14 l-44 0 1
-162 c1 -252 -5 -236 119 -340 58 -48 111 -91 118 -94 7 -4 23 3 35 14 28 25
58 15 101 -33 l31 -34 155 -3 155 -3 -4 -40 c-1 -22 -7 -42 -12 -45 -4 -3 -10
-60 -12 -125 l-3 -120 -2 147 -2 146 -142 4 c-123 3 -147 1 -170 -14 -47 -32
-86 -22 -122 32 -9 14 -21 25 -26 25 -5 0 -15 7 -22 17 -7 9 -59 53 -116 97
-56 45 -107 93 -112 107 -5 13 -10 112 -10 220 1 190 0 196 -23 226 l-24 30
-149 -1 c-130 -2 -151 -4 -167 -20 -18 -18 -16 -21 59 -105 67 -76 81 -87 103
-82 14 3 20 2 12 -1 -10 -4 -4 -11 20 -22 31 -15 34 -21 35 -59 0 -23 4 -45 7
-49 4 -3 7 -15 7 -26 0 -13 -5 -17 -16 -13 -9 3 -21 6 -27 6 -7 0 -3 7 7 15
11 8 15 15 10 15 -6 0 -15 -5 -21 -11 -7 -7 -67 -13 -147 -16 -170 -5 -184 0
-262 105 -32 43 -78 102 -102 132 -24 30 -48 65 -53 78 -9 22 -11 23 -32 10
-28 -19 -110 -119 -143 -176 -61 -104 -68 -275 -16 -385 34 -73 116 -178 174
-224 39 -31 45 -33 132 -34 50 -1 109 -3 131 -4 33 -2 44 3 68 28 24 26 32 29
69 24 22 -3 45 -11 49 -19 20 -31 27 -78 16 -113 -10 -34 -11 -35 -64 -35 -51
0 -55 2 -74 35 -12 19 -26 35 -32 36 -203 9 -247 9 -247 0 0 -21 -40 -51 -68
-51 -42 0 -72 26 -72 62 0 21 6 31 20 35 11 3 20 6 20 7 0 1 -22 25 -49 53
-65 67 -132 167 -153 228 -11 33 -17 80 -17 140 -1 158 58 283 191 411 l77 74
11 85 c18 145 66 245 165 345 76 78 155 131 247 165 40 15 83 31 94 35 12 5
32 30 45 55 31 61 109 132 195 177 95 50 139 60 266 59 l109 -1 62 42 c79 54
133 74 292 109 163 36 235 34 319 -7z m2746 -15 c0 -24 -30 -40 -52 -28 -25
13 -22 45 4 64 21 14 24 14 35 -2 7 -9 13 -25 13 -34z m-2015 6 c30 -47 -24
-87 -67 -48 -24 22 -23 39 5 58 27 19 46 16 62 -10z m1549 10 c18 -9 44 -30
57 -48 l24 -32 3 -794 c1 -437 0 -792 -3 -790 -2 3 -5 190 -5 415 -1 332 -4
414 -15 434 -13 22 -14 -20 -15 -334 0 -198 -2 -357 -4 -355 -3 3 -6 225 -8
494 -1 270 -5 510 -9 535 -5 40 -6 37 -7 -28 -2 -70 -3 -73 -19 -56 -17 17
-18 16 -24 -27 -5 -38 -6 -35 -9 31 -16 436 -30 -144 -30 -1280 0 -661 -3
-837 -14 -883 -7 -32 -17 -61 -21 -65 -4 -4 -5 4 -1 18 3 14 8 52 11 85 l5 60
-14 -45 c-13 -42 -14 -32 -17 160 -1 113 -3 275 -3 360 -3 495 -9 829 -16 765
-4 -38 -7 -280 -6 -537 1 -263 -3 -469 -8 -471 -4 -1 -11 -20 -15 -42 -3 -21
-13 -40 -21 -42 -11 -3 -11 -2 -3 4 8 6 9 14 3 23 -7 11 -10 12 -10 2 0 -7 -5
-10 -11 -7 -7 5 -8 -7 -4 -38 7 -42 5 -47 -31 -86 -20 -23 -47 -47 -58 -53
-18 -9 -18 -7 4 16 21 23 22 29 10 36 -70 44 -234 2 -369 -95 -26 -19 -53 -35
-58 -35 -5 0 -28 -17 -50 -37 -23 -21 -66 -50 -96 -66 -30 -15 -60 -34 -67
-42 -7 -8 -20 -15 -29 -15 -13 -1 -13 -3 3 -15 27 -20 11 -19 -25 2 -36 21
-51 58 -41 103 7 30 18 40 79 75 40 22 78 46 85 53 7 7 -27 -10 -77 -37 -57
-32 -102 -51 -122 -51 -42 0 -77 32 -67 63 6 20 6 20 -11 4 -24 -24 -30 -15
-12 20 86 163 369 298 627 297 107 0 199 -19 248 -51 13 -8 25 -13 26 -11 2 2
6 441 9 975 l6 973 -22 5 c-21 6 -340 -83 -797 -220 -196 -59 -221 -65 -215
-54 4 5 12 9 18 9 7 0 66 18 132 39 66 21 153 49 192 61 40 13 70 27 67 32 -3
5 -12 7 -20 4 -7 -3 -16 -1 -19 4 -3 5 4 11 15 15 11 3 20 11 20 16 0 11 -52
4 -108 -13 -42 -13 -53 -4 -13 10 17 6 31 14 31 18 0 3 -8 3 -17 -1 -10 -3
-54 -13 -98 -21 -44 -9 -106 -24 -139 -35 -32 -11 -60 -18 -63 -16 -2 3 19 13
47 22 28 9 50 19 48 21 -5 5 -90 -16 -111 -27 -10 -5 -22 -7 -27 -4 -6 4 -10
1 -10 -4 0 -6 -7 -11 -16 -11 -8 0 -13 -4 -9 -9 3 -6 -15 -13 -40 -17 -25 -3
-51 -12 -58 -19 -7 -6 -22 -17 -35 -24 -12 -6 -22 -17 -22 -22 0 -6 -11 -20
-25 -30 -13 -11 -38 -49 -56 -84 -17 -35 -40 -72 -50 -81 -10 -9 -19 -23 -19
-31 0 -7 -4 -13 -9 -13 -16 0 -81 -69 -81 -85 0 -8 -6 -15 -14 -15 -7 0 -25
-11 -40 -25 l-26 -24 0 37 c-1 28 -3 33 -10 21 -5 -9 -10 -145 -11 -305 -1
-159 -5 -297 -8 -307 -10 -28 -34 102 -26 144 3 19 1 54 -4 79 -9 44 -9 44
-11 -30 -4 -131 -18 -24 -19 144 -1 83 -4 152 -6 155 -3 2 -6 -234 -6 -525 -1
-291 -5 -603 -9 -694 l-6 -165 -3 215 c-2 118 -3 219 -2 223 1 5 -3 6 -9 2 -5
-3 -11 -14 -11 -23 -1 -9 -5 1 -9 23 -4 23 -9 -64 -11 -205 l-3 -245 -6 165
c-3 91 -6 508 -8 927 -2 662 -1 766 12 791 22 43 28 45 791 257 609 169 654
182 900 249 244 67 240 73 -7 11 -99 -25 -183 -43 -186 -40 -3 3 3 5 14 6 18
0 18 1 1 8 -13 5 43 24 173 61 106 30 188 56 183 57 -12 4 -414 -102 -838
-222 -126 -36 -351 -99 -500 -140 -148 -41 -341 -94 -428 -118 -162 -45 -203
-65 -224 -108 -9 -19 -15 -254 -23 -905 -6 -483 -12 -888 -14 -899 -2 -11 -5
41 -7 115 l-3 135 -6 -155 c-3 -85 -7 266 -8 780 -2 923 -2 935 18 968 27 44
64 59 320 130 118 33 427 121 685 195 259 74 533 152 610 172 77 21 185 50
240 65 117 32 180 48 215 53 14 3 29 5 33 6 5 0 24 -6 41 -14z m-3813 -97 c0
-40 2 -116 4 -168 3 -90 -7 -142 -25 -124 -11 11 -16 336 -6 352 17 28 26 7
27 -60z m1501 25 c18 -16 18 -17 -4 -30 -23 -12 -23 -12 -2 -13 31 0 35 -18
41 -164 5 -103 3 -130 -8 -137 -21 -13 -29 -11 -23 5 4 11 -4 16 -33 18 l-38
3 -2 70 c-3 115 -9 141 -47 203 -20 33 -36 63 -36 67 0 15 132 -4 152 -22z
m-1806 -18 c9 -21 -23 -65 -46 -65 -23 0 -29 26 -15 68 6 17 54 15 61 -3z
m2437 -26 c3 -13 1 -19 -6 -16 -15 5 -22 37 -9 37 5 0 12 -9 15 -21z m-776
-56 c-3 -10 -5 -4 -5 12 0 17 2 24 5 18 2 -7 2 -21 0 -30z m211 -50 c-1 -67
-2 -70 -5 -23 -3 30 -9 58 -15 61 -13 8 -3 39 12 39 6 0 9 -30 8 -77z m3838
18 c-9 -14 -43 -14 -52 1 -4 6 1 17 12 25 15 11 20 11 32 -1 8 -8 11 -19 8
-25z m-2089 23 c-3 -3 -12 -4 -19 -1 -8 3 -5 6 6 6 11 1 17 -2 13 -5z m-17
-13 c24 -7 24 -8 -8 -15 -18 -4 -36 -5 -39 -2 -4 3 2 6 13 7 18 0 18 1 -1 9
-25 11 0 11 35 1z m1726 -6 c6 -16 -12 -45 -27 -45 -5 0 -9 14 -9 30 0 32 26
43 36 15z m-3137 -11 c2 -2 -12 -4 -32 -4 -20 0 -37 4 -37 10 0 8 58 3 69 -6z
m1336 6 l-20 -9 20 -1 c13 -1 6 -6 -19 -16 -27 -10 -48 -11 -65 -6 -25 9 -23
10 24 25 54 17 94 22 60 7z m1385 0 c0 -5 -4 -10 -10 -10 -5 0 -10 5 -10 10 0
6 5 10 10 10 6 0 10 -4 10 -10z m-4776 -26 c8 -20 8 -218 0 -238 -3 -9 -12
-16 -19 -16 -16 0 -27 238 -12 258 13 16 24 15 31 -4z m3303 -20 c-3 -3 -12
-4 -19 -1 -8 3 -5 6 6 6 11 1 17 -2 13 -5z m-3447 -170 c0 -76 -4 -124 -10
-124 -5 0 -10 -12 -10 -26 0 -14 -4 -23 -10 -19 -6 3 -10 49 -10 103 0 53 -4
112 -9 130 -8 28 -7 36 10 53 11 11 24 17 29 14 6 -4 10 -62 10 -131z m4975
126 c3 -5 -3 -10 -14 -10 -12 0 -21 5 -21 10 0 6 6 10 14 10 8 0 18 -4 21 -10z
m-3507 -45 c36 -18 48 -46 33 -74 -21 -39 -77 -35 -100 8 -7 13 -5 26 9 49 23
37 19 36 58 17z m4325 -36 c35 -16 51 -51 43 -93 -7 -38 -46 -76 -77 -76 -20
0 -105 -72 -284 -243 l-110 -104 -5 -137 c-3 -75 -2 -135 1 -134 29 12 123
115 138 152 28 64 53 86 99 86 70 0 117 -83 84 -149 -24 -51 -81 -69 -126 -43
l-32 19 -116 -101 c-163 -141 -418 -370 -447 -400 -22 -24 -28 -26 -110 -24
l-86 2 75 3 c81 3 121 17 113 39 -4 10 -10 11 -24 3 -10 -5 -19 -8 -19 -5 0 2
97 93 217 202 119 109 211 200 205 202 -9 3 -12 49 -12 157 l0 153 179 173
179 174 -5 46 c-6 52 8 86 40 99 30 12 52 12 80 -1z m-5963 -134 c0 -19 -4
-35 -9 -35 -11 0 -24 48 -16 60 13 21 25 8 25 -25z m5050 -2 c-1 -18 -18 -35
-24 -24 -4 6 -4 16 -1 21 7 12 25 13 25 3z m30 -7 c0 -3 -4 -8 -10 -11 -5 -3
-10 -1 -10 4 0 6 5 11 10 11 6 0 10 -2 10 -4z m-5083 -93 c-3 -10 -5 -2 -5 17
0 19 2 27 5 18 2 -10 2 -26 0 -35z m563 2 c0 -12 7 -14 26 -9 18 5 25 3 21 -3
-9 -14 -47 -24 -47 -12 0 5 -10 9 -21 9 -18 0 -19 2 -9 15 16 19 30 19 30 0z
m445 -25 c3 -5 -1 -10 -9 -10 -9 0 -16 5 -16 10 0 6 4 10 9 10 6 0 13 -4 16
-10z m4045 6 c0 -3 -4 -8 -10 -11 -5 -3 -10 -1 -10 4 0 6 5 11 10 11 6 0 10
-2 10 -4z m-4550 -36 c20 13 40 13 40 0 0 -5 -7 -10 -16 -10 -9 0 -31 -7 -50
-16 -44 -21 -50 -15 -22 21 18 23 23 25 27 12 4 -12 10 -14 21 -7z m496 -17
c-7 -7 -26 7 -26 19 0 6 6 6 15 -2 9 -7 13 -15 11 -17z m5157 -23 c-3 -11 -7
-20 -9 -20 -2 0 -4 9 -4 20 0 11 4 20 9 20 5 0 7 -9 4 -20z m-5683 -25 c-7 -9
-15 -13 -18 -10 -3 2 1 11 8 20 7 9 15 13 18 10 3 -2 -1 -11 -8 -20z m593 -42
c-7 -2 -19 -2 -25 0 -7 3 -2 5 12 5 14 0 19 -2 13 -5z m792 -13 c3 -5 1 -10
-4 -10 -6 0 -11 5 -11 10 0 6 2 10 4 10 3 0 8 -4 11 -10z m-795 -4 c0 -3 -4
-8 -10 -11 -5 -3 -10 -1 -10 4 0 6 5 11 10 11 6 0 10 -2 10 -4z m216 -53 c-9
-10 -46 9 -46 23 0 12 4 12 25 -2 14 -9 24 -19 21 -21z m-1529 -25 c-3 -8 -6
-5 -6 6 -1 11 2 17 5 13 3 -3 4 -12 1 -19z m1594 -4 c7 -8 30 -25 52 -36 35
-18 38 -21 24 -35 -11 -12 -19 -13 -36 -4 -11 7 -21 17 -21 23 0 9 3 9 12 0
18 -18 33 -15 18 3 -7 9 -19 14 -27 11 -14 -6 -53 27 -53 44 0 15 16 12 31 -6z
m-431 -25 c0 -5 -4 -9 -10 -9 -5 0 -10 7 -10 16 0 8 5 12 10 9 6 -3 10 -10 10
-16z m5046 -46 c-11 -11 -17 4 -9 23 7 18 8 18 11 1 2 -10 1 -21 -2 -24z m114
18 c0 -25 -30 -36 -48 -17 -19 18 -7 36 24 36 17 0 24 -6 24 -19z m-6323 -328
c-1 -59 -3 -13 -3 102 0 116 2 164 3 108 2 -56 2 -151 0 -210z m1888 272 c36
-35 35 -96 -1 -124 -49 -39 -138 -17 -150 37 -3 15 -8 33 -10 40 -2 8 9 27 25
43 39 39 100 41 136 4z m-185 0 c7 -8 8 -15 2 -15 -5 0 -15 7 -22 15 -7 8 -8
15 -2 15 5 0 15 -7 22 -15z m2522 -87 c-6 -6 -7 0 -4 19 5 21 7 23 10 9 2 -10
0 -22 -6 -28z m-3992 8 c0 -14 -4 -27 -9 -30 -10 -7 -20 23 -14 42 8 21 23 13
23 -12z m1930 14 c0 -5 -5 -10 -11 -10 -5 0 -7 5 -4 10 3 6 8 10 11 10 2 0 4
-4 4 -10z m2781 -43 c-8 -8 -11 -7 -11 4 0 9 3 19 7 23 4 4 9 2 11 -4 3 -7 -1
-17 -7 -23z m-3002 -9 c2 21 16 14 107 -54 49 -37 104 -73 122 -81 17 -7 32
-18 32 -23 0 -5 -26 4 -57 21 l-57 31 27 -35 c36 -48 34 -57 -5 -21 -18 16
-59 47 -91 68 -63 43 -97 80 -96 105 0 12 2 11 9 -4 5 -11 9 -14 9 -7z m2226
6 c-55 -21 -864 -264 -877 -264 -6 0 -9 2 -6 5 6 6 291 96 448 140 63 18 169
50 235 70 165 51 208 63 225 63 8 1 -3 -6 -25 -14z m1235 -9 c12 -15 11 -36
-9 -110 -6 -22 -11 -58 -11 -81 0 -27 -6 -47 -19 -58 -18 -16 -19 -13 -25 91
-9 148 -9 146 10 160 23 17 39 16 54 -2z m-5443 -72 c-3 -10 -5 -4 -5 12 0 17
2 24 5 18 2 -7 2 -21 0 -30z m1801 -29 c-7 -15 -14 -21 -16 -15 -2 7 2 18 8
26 18 22 21 18 8 -11z m4644 -46 c-7 -7 -12 -8 -12 -2 0 14 12 26 19 19 2 -3
-1 -11 -7 -17z m-4442 -27 c0 -24 -25 -45 -45 -37 -15 5 -21 37 -8 49 3 4 17
7 30 7 16 0 23 -6 23 -19z m-2003 -43 c-2 -13 -4 -5 -4 17 -1 22 1 32 4 23 2
-10 2 -28 0 -40z m6007 36 c8 -20 -1 -34 -20 -34 -8 0 -14 10 -14 25 0 28 24
34 34 9z m663 -1789 c-4 -1599 0 -1490 -68 -1709 -62 -201 -167 -382 -304
-524 -119 -125 -260 -231 -369 -276 -57 -24 -42 -9 27 25 281 142 504 406 618
730 75 212 81 268 84 819 2 267 0 463 -4 435 l-8 -50 -1 53 c-1 29 2 52 8 52
6 0 10 5 10 11 0 5 -4 7 -10 4 -6 -4 -11 41 -13 117 -2 101 -3 90 -5 -59 -1
-117 2 -183 8 -183 6 0 10 -10 9 -22 0 -22 -1 -22 -9 -3 -5 12 -9 -130 -9
-340 -2 -453 -9 -533 -68 -735 -45 -154 -236 -500 -276 -500 -8 0 -9 3 -1 8 6
4 33 39 61 77 70 97 164 290 203 415 66 214 62 134 69 1610 4 877 8 1182 11
875 2 -258 6 -432 7 -385 3 58 7 80 13 70 6 -10 11 226 12 640 1 360 4 574 6
475 1 -99 1 -832 -1 -1630z m-5213 1789 c10 -4 16 -18 16 -35 0 -31 -9 -36
-28 -17 -9 9 -12 9 -12 -1 0 -7 -4 -9 -10 -6 -11 7 -14 48 -3 58 8 9 17 9 37
1z m4869 -56 c58 -30 44 -158 -21 -188 -29 -13 -87 2 -96 26 -4 12 -20 4 -68
-35 -35 -28 -78 -54 -96 -57 -19 -4 -91 -4 -160 -2 l-125 5 -52 -46 c-124
-110 -172 -149 -203 -165 -32 -16 -32 -17 -32 -91 l0 -75 184 0 c101 0 191 3
199 6 11 4 14 15 10 38 -19 121 157 192 212 86 34 -65 6 -142 -57 -154 -131
-25 -188 -30 -361 -30 l-197 -1 -95 -80 c-52 -44 -95 -85 -95 -90 0 -6 27 -39
60 -73 57 -58 64 -62 106 -62 43 0 50 4 97 55 44 48 55 55 88 55 46 0 99 -40
99 -75 0 -33 41 -39 204 -31 126 7 132 8 161 36 61 59 113 64 161 16 87 -87 2
-216 -109 -165 -13 6 -31 24 -41 40 l-17 29 -185 0 c-171 0 -188 -2 -211 -20
-31 -24 -60 -25 -112 -4 -33 13 -49 14 -94 4 -73 -15 -96 -4 -188 87 l-77 75
-103 8 -104 7 82 2 c107 1 118 19 16 24 l-78 3 87 2 c98 2 78 -9 241 136 l77
69 0 174 c0 161 1 174 18 171 14 -3 18 -16 20 -71 l3 -68 92 78 c51 42 111 94
134 115 l43 38 151 0 151 0 59 48 c32 26 59 55 59 65 0 33 31 78 63 92 31 14
65 11 100 -7z m-5769 -31 c16 -26 -12 -71 -47 -75 -50 -6 -72 32 -46 79 8 16
18 19 46 17 20 -2 41 -11 47 -21z m2741 3 c-11 -5 -27 -9 -35 -9 -13 -1 -13 0
0 9 8 5 24 9 35 9 l20 0 -20 -9z m-70 -20 c-11 -5 -27 -9 -35 -9 -9 0 -8 4 5
9 11 5 27 9 35 9 9 0 8 -4 -5 -9z m-1688 -33 c16 -34 -1 -57 -40 -57 -18 0
-39 6 -49 13 -15 12 -15 14 0 34 15 19 35 28 68 32 6 0 16 -9 21 -22z m4365
-7 c-3 -31 -20 -50 -44 -50 -26 0 -33 24 -14 53 21 32 62 30 58 -3z m-3095
-22 c-3 -8 -6 -5 -6 6 -1 11 2 17 5 13 3 -3 4 -12 1 -19z m-2127 -34 c0 -8 -5
-12 -10 -9 -6 4 -8 11 -5 16 9 14 15 11 15 -7z m2127 -576 c-1 -112 -2 -23 -2
197 0 220 1 311 2 203 2 -108 2 -288 0 -400z m1390 500 c-2 -18 -4 -6 -4 27 0
33 2 48 4 33 2 -15 2 -42 0 -60z m-3548 -20 c20 -13 39 -23 43 -23 14 0 36
-39 30 -54 -4 -11 1 -13 19 -8 13 3 108 7 211 8 l187 2 57 -52 c96 -88 114
-99 179 -105 121 -13 145 -17 145 -27 0 -5 -53 -9 -122 -9 l-121 0 -56 48
c-114 98 -105 95 -222 86 -99 -7 -102 -8 -79 -23 14 -8 63 -52 110 -96 47 -45
102 -95 123 -113 l38 -32 189 0 189 0 103 -93 c121 -110 162 -156 68 -78 -105
89 -110 89 -22 2 78 -78 82 -84 80 -124 l-1 -42 -4 42 c-4 38 -12 49 -119 147
l-114 106 -188 -6 c-146 -6 -193 -4 -212 6 -36 19 -310 282 -304 292 3 4 -27
8 -66 8 -70 0 -71 0 -110 -41 -36 -38 -43 -41 -76 -36 -20 3 -43 12 -51 19
-37 30 -55 118 -33 159 8 15 71 56 89 59 2 0 20 -10 40 -22z m4679 -15 c-15
-2 -42 -2 -60 0 -18 2 -6 4 27 4 33 0 48 -2 33 -4z m-3252 -92 c-24 -26 -13
-57 27 -82 18 -10 28 -19 22 -19 -25 0 -75 41 -75 62 0 19 25 58 38 58 3 0 -3
-9 -12 -19z m4173 -5 c9 -11 9 -19 -1 -35 -15 -25 -41 -24 -46 2 -8 42 23 63
47 33z m-1592 -18 c-3 -8 -6 -5 -6 6 -1 11 2 17 5 13 3 -3 4 -12 1 -19z m-843
-29 c-3 -5 -10 -7 -15 -3 -5 3 -7 10 -3 15 3 5 10 7 15 3 5 -3 7 -10 3 -15z
m2636 17 c0 -2 -7 -7 -16 -10 -8 -3 -12 -2 -9 4 6 10 25 14 25 6z m-2940 -18
c0 -9 3 -8 10 2 6 10 12 12 19 5 7 -7 5 -14 -7 -22 -15 -9 -21 -7 -30 8 -8 12
-8 19 -2 19 5 0 10 -6 10 -12z m-3287 -23 c-3 -9 -8 -14 -10 -11 -3 3 -2 9 2
15 9 16 15 13 8 -4z m4401 -256 c2 -145 4 -330 5 -411 1 -91 5 -148 11 -148 7
0 10 145 10 415 0 228 3 415 8 415 7 0 6 -392 -2 -825 -4 -216 -13 -274 -66
-392 -75 -165 -214 -298 -413 -394 -45 -21 -113 -48 -152 -59 -136 -40 -333
-37 -468 7 -63 20 -56 27 8 8 56 -17 89 -19 80 -5 -3 6 -16 10 -27 10 -12 0
-19 2 -16 5 2 3 42 0 87 -5 104 -14 252 1 351 35 39 13 112 46 163 72 75 39
110 66 192 148 105 105 136 155 186 295 23 64 23 71 27 584 2 285 5 516 8 514
2 -3 6 -124 8 -269z m603 229 c38 -17 39 -19 35 -72 -4 -48 -11 -53 -67 -47
-52 5 -71 77 -29 110 31 25 26 24 61 9z m1163 -8 c0 -5 -4 -10 -10 -10 -5 0
-10 5 -10 10 0 6 5 10 10 10 6 0 10 -4 10 -10z m110 -69 c12 -23 13 -91 2
-107 -10 -14 -77 -54 -91 -54 -19 0 -71 81 -71 112 0 21 8 33 33 48 43 27 113
27 127 1z m-426 -207 c19 -50 -8 -85 -42 -53 -28 25 -28 34 0 53 28 20 34 20
42 0z m-4527 -50 c-3 -3 -12 -4 -19 -1 -8 3 -5 6 6 6 11 1 17 -2 13 -5z m-277
-19 c7 -9 10 -25 6 -40 -6 -22 -11 -26 -39 -23 -25 2 -33 8 -35 27 -6 41 43
66 68 36z m4520 5 c8 -5 11 -10 5 -10 -5 0 -17 5 -25 10 -8 5 -10 10 -5 10 6
0 17 -5 25 -10z m250 -20 c0 -5 -2 -10 -4 -10 -3 0 -8 5 -11 10 -3 6 -1 10 4
10 6 0 11 -4 11 -10z m-4088 -12 c-15 -15 -15 -53 0 -81 10 -20 10 -21 -5 -8
-27 22 -18 101 12 101 3 0 0 -5 -7 -12z m3888 -3 c17 -20 4 -35 -30 -35 -27 0
-41 14 -33 35 6 16 49 16 63 0z m-400 1 c0 -2 -7 -7 -16 -10 -8 -3 -12 -2 -9
4 6 10 25 14 25 6z m-4370 -87 c0 -3 -6 -11 -13 -18 -11 -8 -13 -4 -13 24 1
31 3 33 14 18 6 -9 12 -20 12 -24z m-397 -19 l198 0 47 -44 c26 -24 57 -48 69
-55 14 -7 85 -11 196 -11 161 0 175 1 192 20 25 28 79 27 99 -2 25 -35 21 -85
-9 -104 -20 -13 -30 -14 -59 -4 -19 6 -37 17 -40 25 -4 11 -45 14 -205 17
l-200 3 -53 53 -54 52 -193 0 -194 0 6 -61 c12 -132 107 -240 254 -290 71 -24
172 -31 248 -16 29 5 35 5 23 -3 -35 -21 -162 -24 -234 -4 -79 21 -174 72
-222 121 -36 35 -48 41 -37 21 4 -7 -8 3 -25 22 -31 34 -32 34 -15 5 41 -70
161 -163 257 -196 38 -14 43 -17 18 -13 -88 15 -249 135 -290 215 -21 40 -45
169 -37 199 2 9 0 25 -5 34 -7 12 -5 16 7 16 13 0 14 4 5 20 l-11 20 33 -20
c30 -18 50 -20 231 -20z m3547 -23 l35 -17 -35 8 c-73 15 -242 6 -335 -18
-203 -52 -343 -128 -471 -255 -99 -98 -152 -185 -178 -293 -13 -52 -15 -54
-16 -22 l-2 35 -10 -43 c-15 -67 -21 -42 -9 35 7 45 26 99 55 159 37 74 59
104 124 166 144 138 342 232 547 262 71 10 260 -1 295 -17z m-2602 -28 c-6 -4
-7 -13 -3 -20 5 -9 2 -8 -9 2 -10 9 -14 22 -10 32 4 13 9 14 19 4 8 -8 9 -14
3 -18z m4870 12 c20 -12 11 -75 -11 -79 -29 -6 -64 6 -71 24 -15 40 44 80 82
55z m-940 -218 c16 -16 16 -16 -1 -10 -11 4 -16 3 -12 -3 3 -6 15 -10 26 -10
12 0 19 -7 19 -20 0 -28 -34 -26 -48 3 -10 21 -13 57 -5 57 3 0 12 -8 21 -17z
m-3113 -43 c14 -6 4 -9 -36 -9 -192 -3 -473 -103 -640 -228 -70 -53 -181 -171
-215 -229 -33 -57 -63 -144 -79 -229 -10 -55 -13 -62 -14 -32 -1 20 -6 37 -12
37 -8 0 -10 -25 -7 -82 3 -46 1 -74 -3 -63 -13 34 -10 187 6 245 28 104 81
196 163 279 156 156 373 268 595 305 93 16 212 19 242 6z m2991 -24 c34 -34
41 -62 35 -136 -2 -30 -29 -53 -54 -46 -11 2 -16 2 -13 -1 10 -11 -16 -33 -39
-33 -12 0 -34 9 -47 20 -30 23 -56 79 -41 88 6 4 16 25 23 47 7 22 21 49 31
61 11 11 16 24 12 27 -3 4 8 7 26 7 24 0 42 -9 67 -34z m578 0 c7 3 21 -2 30
-11 14 -15 16 -15 16 -1 0 9 5 16 10 16 6 0 10 -5 10 -12 0 -6 3 -9 6 -6 3 4
17 0 31 -7 17 -9 43 -12 74 -8 55 7 56 6 61 -109 4 -60 2 -68 -18 -78 -11 -7
-30 -10 -41 -8 -27 4 -84 -45 -72 -63 10 -16 11 -177 1 -199 -4 -8 -18 -16
-32 -18 -13 -1 -27 -6 -30 -11 -7 -12 -80 -12 -80 0 0 5 -7 9 -15 9 -20 0 -33
29 -30 67 1 22 -2 30 -12 26 -9 -4 -11 0 -7 11 3 9 1 16 -5 16 -17 0 -13 18
10 41 11 11 18 23 15 27 -4 3 -13 -3 -21 -14 -14 -18 -15 -16 -13 27 3 42 5
45 28 41 20 -4 23 -2 13 8 -10 11 -9 16 5 26 15 12 15 13 1 14 -26 0 -18 30 8
30 13 0 23 5 23 10 0 6 -15 10 -34 10 -26 0 -35 5 -39 21 -4 15 -11 20 -25 17
-18 -5 -19 -1 -16 49 3 60 17 85 41 76 10 -4 14 -2 10 4 -4 6 3 8 17 6 13 -3
27 0 30 6 5 8 12 7 22 -3 8 -9 21 -13 28 -10z m-975 -32 c18 -13 21 -22 16
-43 -14 -57 -60 -78 -97 -44 -20 18 -24 73 -6 91 17 17 59 15 87 -4z m671 -10
c12 -30 1 -49 -31 -59 -25 -8 -49 11 -49 39 0 50 63 65 80 20z m754 4 c31 -44
15 -158 -23 -158 -36 0 -51 27 -51 90 0 49 4 61 22 74 29 21 34 20 52 -6z
m-1190 -13 c3 -8 1 -15 -4 -15 -6 0 -10 7 -10 15 0 8 2 15 4 15 2 0 6 -7 10
-15z m-2734 -16 c28 -6 63 -21 78 -34 l27 -23 -25 -6 c-14 -2 -43 -8 -65 -11
-22 -4 -48 -15 -58 -26 -10 -10 -37 -28 -60 -40 -23 -12 -55 -34 -72 -49 -16
-15 -68 -51 -115 -80 -47 -29 -107 -75 -135 -104 -27 -28 -65 -61 -83 -74 -39
-27 -171 -92 -188 -92 -7 0 -14 -6 -16 -12 -9 -27 -30 34 -24 68 12 60 50 91
203 164 78 38 143 71 143 74 0 6 -6 4 -132 -57 -131 -63 -181 -76 -216 -56
-15 8 -32 26 -39 39 -7 14 -13 19 -13 12 0 -7 7 -26 15 -41 12 -23 12 -31 2
-39 -17 -14 -42 2 -32 19 6 11 5 11 -5 2 -11 -10 -11 -15 0 -28 17 -21 15 -85
-4 -104 -12 -12 -20 -12 -41 -3 -14 6 -25 17 -25 23 0 6 -9 1 -20 -12 l-20
-24 16 40 c9 22 25 50 36 62 22 24 39 50 62 98 34 70 203 204 323 256 26 12
89 32 138 44 101 27 257 33 345 14z m2740 -13 c0 -3 -4 -8 -10 -11 -5 -3 -10
-1 -10 4 0 6 5 11 10 11 6 0 10 -2 10 -4z m510 -51 c7 -8 16 -13 20 -10 16 10
20 -13 9 -44 -9 -27 -16 -32 -38 -29 -27 3 -38 27 -25 56 4 9 6 23 5 30 -3 17
14 15 29 -3z m-4963 -21 c-3 -3 -12 -4 -19 -1 -8 3 -5 6 6 6 11 1 17 -2 13 -5z
m40 0 c-3 -3 -12 -4 -19 -1 -8 3 -5 6 6 6 11 1 17 -2 13 -5z m66 -1 c-7 -2
-21 -2 -30 0 -10 3 -4 5 12 5 17 0 24 -2 18 -5z m3529 -109 c-16 -33 -33 -78
-37 -102 -9 -58 -76 -155 -144 -208 -78 -61 -203 -122 -286 -139 -92 -19 -226
-19 -300 0 -63 17 -124 52 -190 111 l-40 35 35 -20 c55 -31 147 -51 236 -51
64 0 109 8 203 35 137 39 176 57 279 128 75 52 181 157 214 214 11 18 24 31
28 28 5 -3 12 4 15 16 4 11 9 18 12 16 2 -3 -9 -31 -25 -63z m992 40 c4 -10 1
-14 -6 -12 -15 5 -23 28 -10 28 5 0 13 -7 16 -16z m361 -28 c15 -20 23 -23 42
-15 27 10 30 2 6 -16 -14 -11 -22 -10 -42 6 -15 12 -28 16 -34 10 -13 -13 1
-31 18 -24 10 3 15 -2 15 -16 0 -21 1 -21 25 -5 14 9 29 13 33 10 4 -4 7 -60
7 -124 l0 -117 -25 0 c-23 0 -25 4 -28 50 -2 28 -7 54 -13 60 -5 5 -9 17 -9
27 0 10 -7 21 -15 24 -8 4 -15 16 -15 28 0 11 -7 34 -15 49 -13 25 -13 30 0
44 8 8 15 19 15 24 0 17 17 9 35 -15z m-210 -6 c3 -5 -1 -10 -9 -10 -9 0 -16
5 -16 10 0 6 4 10 9 10 6 0 13 -4 16 -10z m30 0 c3 -5 1 -10 -4 -10 -6 0 -11
5 -11 10 0 6 2 10 4 10 3 0 8 -4 11 -10z m-487 -22 c31 -31 5 -98 -38 -98 -32
0 -50 23 -50 64 0 39 60 62 88 34z m-4560 -20 c7 -7 12 -37 12 -68 0 -47 -4
-60 -22 -76 -23 -19 -23 -19 -6 1 20 23 18 116 -3 141 -14 17 2 19 19 2z
m5870 -4 c19 -13 22 -24 22 -85 0 -65 -2 -70 -26 -81 -44 -20 -59 -2 -62 79
-2 55 1 74 13 87 20 20 25 20 53 0z m-168 -98 c0 -163 -27 -141 -31 24 -2 82
-2 80 16 80 12 0 15 -18 15 -104z m-720 63 c0 -11 -7 -22 -15 -26 -19 -6 -20
-5 -29 24 -5 16 -2 22 11 25 25 6 33 0 33 -23z m-80 -34 c19 -23 30 -85 15
-85 -7 0 -18 -6 -24 -14 -13 -16 -48 -11 -73 12 -18 15 -15 64 5 90 13 17 62
15 77 -3z m220 -12 c-1 -27 -1 -27 -15 -9 -19 25 -19 36 0 36 10 0 15 -10 15
-27z m-2493 -75 c-3 -8 -6 -5 -6 6 -1 11 2 17 5 13 3 -3 4 -12 1 -19z m1663
-53 c-7 -9 -15 -13 -19 -10 -3 3 1 10 9 15 21 14 24 12 10 -5z m300 -21 c0
-14 -4 -23 -10 -19 -5 3 -7 12 -3 20 3 8 0 15 -7 15 -8 0 -10 -9 -5 -27 6 -27
5 -27 -11 -11 -17 17 -17 18 1 37 21 25 35 19 35 -15z m458 -37 c2 -37 -1 -67
-6 -67 -19 0 -32 27 -32 66 0 98 34 98 38 1z m-724 38 c-7 -18 -32 -27 -40
-13 -4 6 -3 8 4 4 6 -3 13 3 17 14 4 11 10 18 15 15 5 -3 7 -12 4 -20z m474
-27 c17 -17 15 -58 -4 -65 -23 -9 -64 14 -64 36 0 33 45 52 68 29z m902 -143
c0 -80 -4 -145 -9 -145 -5 0 -12 47 -16 105 -4 58 -11 103 -15 100 -5 -3 -11
-1 -15 5 -4 6 -11 8 -16 5 -5 -4 -9 6 -9 21 0 15 3 25 6 21 3 -3 20 3 37 14
18 10 33 19 35 19 1 0 2 -65 2 -145z m184 120 c3 -8 2 -68 -1 -132 -6 -98 -8
-110 -14 -73 -11 65 -11 220 0 220 5 0 11 -7 15 -15z m-360 -223 c-4 -114 -8
-209 -11 -211 -15 -18 -24 41 -30 208 -6 180 -5 195 12 207 10 7 22 11 27 8 4
-3 5 -97 2 -212z m293 181 c-3 -10 -5 -4 -5 12 0 17 2 24 5 18 2 -7 2 -21 0
-30z m-475 10 c15 -13 18 -31 18 -98 0 -84 -9 -105 -42 -105 -40 0 -58 35 -58
114 0 54 4 79 16 90 20 21 43 20 66 -1z m125 -85 c-2 -18 -4 -4 -4 32 0 36 2
50 4 33 2 -18 2 -48 0 -65z m-288 64 c11 -21 3 -68 -14 -82 -11 -9 -15 -2 -20
34 -9 61 11 90 34 48z m-5089 -2 c-8 -5 -19 -10 -25 -10 -5 0 -3 5 5 10 8 5
20 10 25 10 6 0 3 -5 -5 -10z m2800 -136 c0 -2 -13 2 -30 11 -16 9 -30 18 -30
21 0 2 14 -2 30 -11 17 -9 30 -18 30 -21z m1840 21 c30 -15 35 -30 30 -85 -3
-37 -18 -50 -58 -50 -75 0 -112 85 -56 129 32 25 46 26 84 6z m-4312 -37 c31
-31 -7 -96 -52 -90 -23 4 -46 28 -46 49 0 38 71 68 98 41z m4600 -11 c2 -12
-1 -15 -12 -11 -19 7 -22 38 -3 32 6 -3 13 -12 15 -21z m-698 -2 c0 -8 -4 -15
-10 -15 -5 0 -10 7 -10 15 0 8 5 15 10 15 6 0 10 -7 10 -15z m-332 -11 c18 -5
22 -13 22 -44 0 -39 -11 -50 -50 -50 -20 0 -30 19 -30 59 0 41 10 47 58 35z
m442 -69 c0 -8 -4 -15 -10 -15 -5 0 -10 9 -10 19 0 11 -5 23 -12 27 -8 5 -9 1
-4 -12 6 -15 4 -16 -5 -7 -6 6 -9 19 -5 29 6 16 8 15 26 -4 11 -12 20 -28 20
-37z m-4310 13 l30 -21 -23 -12 c-20 -10 -22 -18 -22 -88 0 -73 -1 -77 -22
-77 -21 0 -23 4 -23 62 0 74 -17 68 -22 -7 -3 -44 -6 -50 -26 -53 -32 -5 -57
21 -72 72 -25 90 14 146 102 146 34 0 57 -6 78 -22z m4897 -4 c-3 -3 -12 -4
-19 -1 -8 3 -5 6 6 6 11 1 17 -2 13 -5z m78 -25 c-4 -6 2 -20 13 -32 28 -30
48 -142 31 -173 -14 -28 -57 -46 -109 -48 -48 -1 -82 28 -106 90 -20 53 -14
95 22 141 24 31 28 33 90 33 44 0 63 -4 59 -11z m147 -51 c9 -7 18 -26 20 -43
3 -26 0 -30 -21 -30 -18 0 -27 8 -34 28 -15 47 2 70 35 45z m638 -25 c3 -3 5
-32 5 -66 0 -47 -4 -62 -15 -65 -12 -2 -14 7 -12 48 3 35 -1 54 -11 65 -9 8
-17 15 -20 15 -2 0 -5 -25 -6 -57 -1 -37 2 -59 11 -64 7 -4 9 -11 5 -15 -3 -4
-13 -1 -22 6 -11 9 -15 32 -15 81 l0 68 38 -6 c20 -3 39 -8 42 -10z m-2907 -4
c20 -5 37 -15 37 -21 0 -5 7 -8 15 -4 10 3 17 -3 21 -19 8 -33 -3 -50 -24 -33
-14 11 -15 10 -8 -12 3 -14 33 -131 66 -260 78 -310 71 -294 99 -224 32 76 75
124 111 124 33 0 61 -34 112 -134 l35 -69 12 74 c11 69 51 243 87 384 45 171
114 244 172 182 32 -34 57 -99 97 -252 58 -222 104 -351 144 -397 33 -38 37
-40 79 -35 53 6 308 132 323 159 5 9 16 15 23 12 8 -3 24 4 35 15 17 17 19 26
11 41 -6 12 -7 27 0 44 5 14 6 27 2 30 -9 6 -8 185 2 214 l8 24 15 -22 c10
-15 13 -35 9 -68 -3 -26 -8 -88 -11 -137 l-5 -91 27 -10 c19 -7 56 -7 114 -1
81 9 91 8 200 -23 63 -17 121 -38 129 -45 8 -7 31 -20 50 -27 19 -8 40 -21 47
-30 24 -28 166 4 488 110 99 33 181 59 183 57 1 -1 0 -9 -4 -18 -3 -9 -29 -24
-57 -32 -28 -8 -58 -22 -67 -30 -9 -8 -36 -21 -61 -29 -24 -8 -109 -37 -189
-65 -80 -28 -156 -51 -169 -51 -13 0 -40 -4 -60 -10 -20 -5 -70 -17 -111 -26
-41 -10 -90 -25 -107 -35 -22 -13 -63 -20 -125 -24 -109 -6 -248 -29 -257 -42
-12 -18 -46 -31 -61 -23 -8 4 -71 10 -139 13 -68 3 -128 10 -134 16 -6 6 -26
11 -44 11 -28 0 -33 -4 -33 -22 0 -18 -2 -20 -9 -9 -5 8 -7 21 -3 29 4 12 1
14 -14 8 -10 -5 -28 -10 -39 -13 -16 -3 -15 -1 5 11 l25 15 -32 1 c-28 0 -37
8 -79 73 -53 81 -71 102 -60 72 4 -11 10 -48 12 -82 5 -57 3 -63 -14 -63 -22
0 -32 52 -32 185 -1 79 -29 212 -43 199 -4 -4 -8 6 -8 22 -1 32 -1 31 -13 94
-11 59 -43 145 -60 159 -9 8 -17 7 -29 -2 -14 -10 -17 -45 -19 -280 -2 -164 1
-267 7 -267 5 0 4 -5 -3 -12 -6 -6 -14 -9 -17 -6 -14 13 -22 518 -9 553 6 18
5 18 -9 5 -14 -14 -80 -261 -106 -400 -35 -180 -56 -235 -86 -224 -8 4 -12 10
-9 15 3 5 1 9 -5 9 -5 0 -13 10 -17 23 -4 12 -12 25 -18 29 -6 4 -11 11 -11
15 0 5 -10 21 -22 37 l-23 29 0 -41 c0 -70 -18 -56 -22 17 -3 69 -3 69 17 53
16 -13 15 -11 -2 8 -19 21 -24 22 -39 9 -16 -13 -16 -12 -5 9 14 26 4 30 -15
5 -20 -27 -17 -43 9 -44 18 -1 16 -3 -9 -11 -37 -12 -53 -54 -62 -158 -3 -45
-7 -59 -13 -45 -12 31 -10 80 3 93 9 9 9 12 0 12 -7 0 -12 -4 -12 -10 0 -14
-36 -12 -48 3 -9 11 -16 31 -41 112 -6 21 -8 -1 -6 -75 7 -211 7 -361 1 -367
-3 -4 -7 -2 -7 3 -5 37 -12 311 -11 404 2 91 -3 139 -24 230 -38 173 -67 261
-81 247 -2 -3 0 -15 7 -26 9 -17 8 -25 -5 -37 -13 -14 -15 -14 -15 1 0 11 -5
15 -15 11 -9 -3 -16 1 -17 12 -7 77 -15 -286 -11 -542 3 -209 1 -316 -5 -312
-6 3 -11 46 -11 94 -1 227 -19 707 -26 700 -5 -5 -51 -275 -74 -433 -13 -85
-20 -188 -20 -262 l1 -123 49 0 c27 0 49 -5 49 -10 0 -6 -10 -10 -22 -9 -38 3
-58 0 -58 -11 0 -5 10 -11 23 -11 20 -1 20 -2 2 -6 -34 -8 -42 -23 -16 -30 23
-6 23 -6 -5 -20 -25 -11 1 -12 196 -8 367 8 773 63 1028 141 68 21 92 33 127
69 27 27 46 39 50 32 3 -7 3 -2 1 11 -5 27 4 28 32 3 15 -13 22 -30 22 -56 0
-34 2 -36 18 -24 13 11 12 8 -3 -11 -32 -39 -45 -48 -125 -79 -103 -40 -271
-80 -490 -115 -143 -23 -628 -66 -750 -66 -46 0 -61 -3 -50 -10 8 -5 33 -10
55 -10 29 0 36 -3 25 -10 -30 -19 26 -25 218 -24 106 0 189 -3 185 -7 -4 -4
-89 -13 -188 -20 -99 -6 -184 -15 -189 -20 -6 -5 0 -9 15 -9 24 0 24 0 -6 -20
l-30 -20 158 0 c145 0 547 30 642 48 37 7 40 10 40 41 0 24 6 36 20 43 17 7
16 8 -5 4 -124 -22 -413 -56 -419 -50 -14 14 35 25 214 49 110 14 218 31 240
36 22 5 90 16 150 24 61 7 121 16 135 20 l25 6 -25 -12 -25 -12 33 -7 c45 -10
154 4 227 29 47 16 56 17 40 5 -19 -16 -18 -16 22 -10 57 8 123 38 169 76 22
18 18 13 -10 -13 -136 -127 -635 -251 -1151 -287 -77 -5 -178 -14 -225 -19
-47 -5 -138 -13 -203 -16 -115 -7 -138 -14 -149 -46 -2 -7 -18 -12 -36 -12
-32 0 -32 0 -32 -54 0 -29 -4 -53 -10 -53 -5 0 -10 15 -10 33 0 39 -15 57 -48
57 -15 0 -37 13 -56 33 l-32 34 -139 6 c-133 7 -404 30 -490 41 -136 19 -343
47 -360 49 -15 1 -20 -4 -19 -21 1 -19 -3 -23 -20 -19 -11 3 -52 11 -91 17
-38 7 -83 17 -100 21 -31 9 -2 7 119 -8 60 -7 56 8 -6 26 -62 19 -91 32 -53
24 53 -10 15 13 -60 37 -101 33 -276 102 -271 107 3 3 47 -9 98 -26 87 -29
277 -65 288 -55 2 3 -2 9 -9 14 -10 6 -4 11 23 18 35 10 96 5 169 -13 29 -8
36 -32 12 -41 -12 -5 -13 -10 -4 -20 9 -11 7 -14 -12 -14 -57 -1 16 -21 147
-40 268 -40 704 -65 689 -40 -3 6 -18 10 -33 11 -26 0 -25 1 8 14 19 7 33 14
30 15 -20 4 -429 30 -482 30 -52 0 -68 3 -68 14 0 8 -8 17 -17 20 -22 7 103
-1 218 -13 47 -5 151 -12 230 -16 131 -5 141 -4 114 9 -16 8 -25 15 -20 16 6
0 1 7 -9 15 -18 14 -14 15 45 16 51 2 42 3 -46 10 -329 25 -716 73 -835 104
l-55 14 52 -5 c44 -4 54 -2 62 15 16 29 16 28 -44 42 -30 7 -53 14 -51 16 2 2
38 -3 80 -11 189 -40 412 -64 744 -82 88 -5 122 -3 122 5 0 6 -12 12 -27 12
-18 1 -21 3 -10 6 9 2 15 9 12 14 -4 5 1 9 10 9 11 0 14 7 11 26 -3 15 2 37
11 50 9 15 11 24 4 24 -6 0 -11 9 -11 20 0 11 7 20 15 20 11 0 15 -12 16 -42
1 -24 1 -49 0 -55 -3 -23 18 -13 21 10 2 13 9 21 18 18 34 -8 70 -3 97 14 15
10 23 20 18 22 -6 2 -10 47 -10 103 0 93 -1 101 -20 106 -19 5 -36 37 -91 169
-10 26 -18 35 -21 25 -3 -8 -16 -39 -29 -68 -13 -29 -24 -56 -24 -60 -1 -4 -9
-17 -19 -29 -19 -23 -32 -30 -29 -15 0 4 -8 27 -19 52 -12 25 -29 73 -39 108
-18 67 -34 68 -34 3 0 -39 -15 -32 -23 9 -2 14 -5 1 -6 -27 0 -30 -6 -53 -12
-53 -5 0 -9 8 -8 18 3 31 -3 87 -8 70 -2 -10 -12 -18 -22 -18 -14 0 -17 7 -14
33 3 27 2 29 -7 14 -6 -10 -13 -30 -15 -45 -2 -15 -4 -29 -5 -32 -1 -3 -3 -9
-4 -15 -1 -5 -5 -17 -8 -25 -31 -82 -54 -170 -44 -170 6 0 2 -8 -9 -16 -14
-11 -16 -18 -7 -21 21 -8 14 -42 -8 -40 -11 1 -20 7 -20 14 0 7 -4 13 -10 13
-6 0 -10 -28 -10 -64 0 -37 -5 -68 -11 -72 -8 -5 -8 -9 1 -14 8 -5 9 -13 3
-25 -9 -15 -11 -13 -22 13 -7 16 -10 48 -7 72 6 49 -13 91 -50 110 -12 7 -41
52 -67 104 l-46 91 -2 -80 c-1 -44 -1 -86 0 -92 1 -7 -2 -13 -8 -13 -5 0 -12
35 -16 78 -4 42 -12 86 -17 96 -6 11 -10 43 -9 73 1 40 -3 53 -14 53 -8 0 -17
14 -21 34 -6 34 -26 52 -46 40 -6 -4 -13 -1 -17 5 -4 7 -8 -5 -9 -25 -1 -21
-6 -40 -11 -43 -11 -7 -18 -117 -8 -127 4 -4 4 -11 0 -17 -3 -5 -5 -49 -4 -98
1 -52 -2 -89 -7 -89 -6 0 -8 9 -5 21 4 12 0 25 -7 29 -19 12 -27 254 -10 276
7 8 11 17 8 19 -2 3 -37 -33 -77 -80 -41 -47 -77 -85 -81 -85 -4 0 -11 -7 -14
-16 -4 -11 -2 -15 8 -11 11 4 11 1 2 -19 -10 -22 -11 -22 -14 -4 -4 21 -12 25
-27 12 -48 -41 -499 -69 -561 -34 -12 6 -45 13 -74 16 -29 3 -56 9 -59 14 -6
9 -69 18 -191 29 -36 3 -73 9 -83 15 -9 5 -34 6 -55 3 -26 -4 -31 -3 -17 4 18
8 17 9 -10 16 -16 3 -39 10 -50 15 -11 5 -38 14 -60 21 -22 7 -54 18 -72 26
-17 7 -36 13 -42 13 -6 0 -11 4 -11 10 0 5 -16 12 -35 16 -20 4 -32 10 -28 17
3 5 2 7 -4 4 -14 -9 -63 15 -63 31 0 6 -6 12 -12 13 -7 0 -23 13 -36 30 l-24
29 25 0 c14 0 70 -20 125 -45 55 -25 112 -45 128 -45 16 0 42 -7 57 -15 43
-22 157 -13 258 21 46 16 86 32 89 35 10 13 88 21 95 10 9 -15 26 -14 23 2 -3
14 100 18 119 4 6 -4 17 -7 25 -6 27 3 38 -1 38 -16 0 -8 -9 -15 -20 -15 -11
0 -20 -7 -20 -15 0 -8 -4 -15 -10 -15 -5 0 -6 8 -3 17 5 12 2 15 -8 11 -8 -3
-23 0 -34 8 -21 15 -36 18 -34 7 1 -5 1 -21 0 -38 -1 -23 -3 -27 -11 -15 -5 8
-7 23 -4 33 4 14 -1 17 -25 17 -27 0 -31 -4 -31 -27 l0 -27 -16 22 c-16 24
-47 31 -38 8 6 -15 -21 -46 -41 -46 -7 0 -15 6 -18 14 -7 19 -57 8 -57 -12 0
-12 -3 -13 -12 -4 -7 7 -16 8 -22 3 -6 -5 -22 -11 -36 -13 l-25 -5 24 -9 23
-10 -31 -16 c-42 -20 -25 -33 54 -42 32 -4 63 -12 67 -19 5 -7 8 -8 8 -1 0 7
17 8 58 1 31 -5 74 -9 95 -8 20 0 37 -4 37 -9 0 -6 9 -10 21 -10 11 0 18 -4
15 -9 -3 -5 4 -9 17 -9 12 0 75 -4 140 -8 88 -5 117 -10 117 -20 0 -8 4 -14
10 -14 5 0 7 6 4 14 -4 11 10 16 63 21 37 3 76 7 86 8 14 1 7 9 -23 27 -23 14
-47 30 -53 36 -7 6 -25 14 -40 18 -16 4 -39 17 -51 29 -13 13 -28 21 -34 19
-7 -2 -12 0 -12 5 0 5 -16 15 -35 22 -19 7 -35 16 -35 21 0 4 -8 6 -18 3 -22
-5 -45 19 -37 40 7 15 45 12 45 -4 0 -5 9 -9 19 -9 11 0 22 -6 24 -12 4 -10 8
-9 16 2 8 12 13 11 30 -9 11 -12 25 -20 30 -16 6 3 11 0 11 -8 0 -7 26 -27 58
-42 31 -16 66 -38 77 -49 l20 -20 6 29 7 30 1 -32 c1 -27 6 -32 31 -37 17 -3
43 -8 59 -11 24 -5 36 2 83 50 31 31 75 84 99 118 24 33 65 82 91 109 59 59
90 63 135 16 29 -31 122 -204 138 -258 15 -48 46 -101 56 -94 8 4 7 9 -2 15
-11 7 -10 9 4 9 9 0 17 -5 17 -11 0 -6 6 -9 14 -6 7 3 18 1 23 -4 22 -22 39
30 103 301 25 106 65 213 86 231 7 6 24 9 36 5 33 -8 60 -77 99 -253 19 -84
37 -153 41 -153 5 0 8 7 8 15 0 26 48 112 66 119 30 12 61 -21 90 -94 17 -45
30 -66 35 -58 8 15 33 152 54 305 18 127 49 263 70 302 31 62 55 71 128 50z
m52 1 c3 -6 -1 -7 -9 -4 -18 7 -21 14 -7 14 6 0 13 -4 16 -10z m-1314 -14 c-9
-10 -8 -15 4 -20 17 -6 20 -41 5 -51 -19 -12 -10 -22 18 -18 25 4 24 3 -7 -12
-103 -47 -348 -33 -466 28 l-40 20 35 12 c32 11 33 12 15 24 -19 11 -18 12 5
7 136 -31 247 -30 370 4 36 10 67 18 69 19 2 1 -2 -5 -8 -13z m2510 4 c24 -13
25 -46 2 -58 -27 -14 -43 -3 -43 27 0 41 9 48 41 31z m944 0 c3 -5 1 -10 -4
-10 -6 0 -11 5 -11 10 0 6 2 10 4 10 3 0 8 -4 11 -10z m520 -8 c3 -11 1 -70
-5 -133 -5 -63 -10 -117 -10 -121 0 -5 -4 -8 -10 -8 -6 0 -10 53 -10 140 0
115 3 140 14 140 8 0 17 -8 21 -18z m-4983 -19 c22 -20 23 -36 3 -53 -23 -19
-65 -4 -65 23 0 24 17 47 34 47 5 0 18 -7 28 -17z m4145 -15 c-3 -7 -5 -2 -5
12 0 14 2 19 5 13 2 -7 2 -19 0 -25z m-850 0 c-3 -8 -6 -5 -6 6 -1 11 2 17 5
13 3 -3 4 -12 1 -19z m541 10 c18 -18 15 -68 -4 -75 -37 -14 -70 41 -44 73 15
17 32 18 48 2z m715 -37 c7 -27 -7 -45 -29 -36 -13 5 -15 9 -6 12 6 3 12 13
12 24 0 25 16 25 23 0z m-3443 -11 c-8 -5 -22 -9 -30 -9 -10 0 -8 3 5 9 27 12
43 12 25 0z m-1352 -30 c33 -20 37 -33 34 -100 -3 -58 -30 -84 -91 -88 -62 -4
-91 12 -115 59 -9 18 -15 48 -15 68 1 20 3 28 6 18 6 -24 23 -11 23 17 0 46
99 62 158 26z m2132 -12 c0 -25 -3 -29 -10 -18 -13 20 -13 50 0 50 6 0 10 -15
10 -32z m1420 13 c0 -36 -32 -35 -38 2 -2 11 4 17 18 17 13 0 20 -7 20 -19z
m747 -13 c13 -29 -4 -71 -25 -63 -7 3 -18 5 -23 5 -6 0 -9 7 -7 16 2 10 -2 19
-9 21 -8 3 -11 -7 -8 -31 2 -20 0 -36 -4 -36 -3 0 -6 -20 -5 -45 1 -25 -3 -45
-8 -45 -6 0 -8 30 -4 78 3 42 5 83 6 90 0 13 33 30 61 31 9 1 20 -9 26 -21z
m-1420 -20 c-3 -8 -6 -5 -6 6 -1 11 2 17 5 13 3 -3 4 -12 1 -19z m-570 -10
c-3 -8 -6 -5 -6 6 -1 11 2 17 5 13 3 -3 4 -12 1 -19z m-1517 -64 c79 -27 95
-29 240 -29 147 1 176 4 295 39 11 4 5 -1 -13 -9 -88 -41 -322 -59 -444 -34
-83 17 -238 78 -238 94 0 3 17 -3 38 -14 20 -10 75 -32 122 -47z m1341 -81 c0
-71 2 -140 3 -155 1 -16 -2 -28 -6 -28 -4 0 -9 8 -9 18 -14 199 -14 292 1 292
6 0 10 -50 11 -127z m749 117 c0 -5 -4 -10 -10 -10 -5 0 -10 5 -10 10 0 6 5
10 10 10 6 0 10 -4 10 -10z m669 -205 c0 -118 -3 -215 -7 -215 -18 0 -32 24
-21 36 7 8 7 14 -1 19 -8 5 -5 11 7 21 10 7 13 14 7 14 -7 0 -10 53 -9 158 1
89 -2 162 -8 170 -7 9 -4 12 11 12 19 0 20 -6 21 -215z m1365 189 c19 -48 -6
-80 -48 -64 -22 8 -26 14 -21 31 5 15 4 19 -4 15 -15 -10 -14 7 1 22 17 17 65
15 72 -4z m-3175 -408 c-5 -6 -9 37 -10 115 0 68 -1 142 -1 164 -2 148 6 104
13 -65 5 -125 4 -209 -2 -214z m2068 307 c-2 -21 -4 -4 -4 37 0 41 2 58 4 38
2 -21 2 -55 0 -75z m-2729 80 c-27 -2 -69 -2 -95 0 -27 2 -5 3 47 3 52 0 74
-1 48 -3z m-1488 -7 c0 -2 -7 -9 -15 -16 -13 -11 -14 -10 -9 4 5 14 24 23 24
12z m4110 -58 c0 -45 -3 -59 -10 -48 -15 24 -10 110 6 110 2 0 4 -28 4 -62z
m-423 10 c-3 -7 -5 -2 -5 12 0 14 2 19 5 13 2 -7 2 -19 0 -25z m-397 0 c0 -19
-2 -20 -10 -8 -13 19 -13 30 0 30 6 0 10 -10 10 -22z m1841 -12 c19 -8 45 -26
58 -40 21 -22 23 -32 19 -90 -4 -68 -21 -95 -60 -96 -9 0 -21 -6 -25 -14 -12
-22 -63 -32 -63 -13 0 9 -12 18 -29 22 -15 3 -41 20 -57 36 -39 41 -40 115 -3
155 46 51 102 64 160 40z m-2421 -10 c0 -3 -4 -8 -10 -11 -5 -3 -10 -1 -10 4
0 6 5 11 10 11 6 0 10 -2 10 -4z m-763 -28 c-3 -8 -6 -5 -6 6 -1 11 2 17 5 13
3 -3 4 -12 1 -19z m1227 -20 c4 -17 2 -28 -4 -28 -5 0 -10 14 -10 32 0 36 4
35 14 -4z m2660 26 c10 -4 16 -18 16 -35 0 -24 -4 -29 -25 -29 -18 0 -26 7
-31 24 -9 39 5 53 40 40z m-1354 -11 c0 -5 -5 -15 -10 -23 -8 -12 -10 -11 -10
8 0 12 5 22 10 22 6 0 10 -3 10 -7z m948 -22 c4 -28 -9 -44 -31 -36 -22 9 -30
35 -16 52 17 20 43 12 47 -16z m-5378 6 c0 -19 -10 -27 -25 -20 -17 6 -8 33
11 33 8 0 14 -6 14 -13z m3250 -17 c0 -11 -7 -20 -15 -20 -15 0 -21 21 -8 33
12 13 23 7 23 -13z m917 -2 c-3 -8 -6 -5 -6 6 -1 11 2 17 5 13 3 -3 4 -12 1
-19z m490 -25 c-3 -10 -5 -4 -5 12 0 17 2 24 5 18 2 -7 2 -21 0 -30z m-598
-83 c0 -55 -5 -100 -10 -100 -5 0 -9 8 -10 18 -7 147 -3 181 19 182 1 0 2 -45
1 -100z m-2152 60 c1 -11 -2 -18 -8 -15 -11 7 -12 35 -1 35 4 0 8 -9 9 -20z
m2260 -2 c-3 -8 -6 -5 -6 6 -1 11 2 17 5 13 3 -3 4 -12 1 -19z m1103 -10 c0
-5 -4 -8 -10 -8 -5 0 -10 10 -10 23 0 18 2 19 10 7 5 -8 10 -18 10 -22z
m-5580 12 c0 -5 -5 -10 -11 -10 -5 0 -7 5 -4 10 3 6 8 10 11 10 2 0 4 -4 4
-10z m3485 0 c-3 -5 -10 -10 -16 -10 -5 0 -9 5 -9 10 0 6 7 10 16 10 8 0 12
-4 9 -10z m85 0 c0 -5 -7 -10 -15 -10 -8 0 -15 5 -15 10 0 6 7 10 15 10 8 0
15 -4 15 -10z m1237 -12 c1 -10 -2 -18 -8 -18 -5 0 -9 2 -9 4 0 2 -2 11 -5 19
-3 7 0 14 8 14 7 0 14 -9 14 -19z m-2987 -8 c0 -5 -4 -10 -10 -10 -5 0 -10 5
-10 10 0 6 5 10 10 10 6 0 10 -4 10 -10z m3080 -10 c0 -5 -2 -10 -4 -10 -3 0
-8 5 -11 10 -3 6 -1 10 4 10 6 0 11 -4 11 -10z m-4300 -16 c0 -8 -4 -12 -10
-9 -5 3 -10 10 -10 16 0 5 5 9 10 9 6 0 10 -7 10 -16z m386 -10 c-4 -9 -9 -15
-11 -12 -3 3 -3 13 1 22 4 9 9 15 11 12 3 -3 3 -13 -1 -22z m331 20 c-3 -3
-12 -4 -19 -1 -8 3 -5 6 6 6 11 1 17 -2 13 -5z m903 -4 c0 -5 -4 -10 -10 -10
-5 0 -10 5 -10 10 0 6 5 10 10 10 6 0 10 -4 10 -10z m-405 -19 c3 -5 2 -12 -3
-15 -5 -3 -9 1 -9 9 0 17 3 19 12 6z m3280 -13 c18 -5 18 -6 3 -13 -24 -10
-48 1 -48 21 0 12 3 14 13 6 6 -5 21 -12 32 -14z m-615 -14 c0 -8 -4 -12 -10
-9 -5 3 -10 10 -10 16 0 5 5 9 10 9 6 0 10 -7 10 -16z m660 -14 c0 -32 -14
-40 -24 -14 -5 14 8 44 20 44 2 0 4 -13 4 -30z m-2413 -12 c-3 -7 -5 -2 -5 12
0 14 2 19 5 13 2 -7 2 -19 0 -25z m-2474 -13 c-3 -9 -8 -14 -10 -11 -3 3 -2 9
2 15 9 16 15 13 8 -4z m1566 -2 c0 -10 -4 -27 -9 -38 -7 -16 -9 -13 -9 18 -1
20 4 37 9 37 6 0 10 -8 9 -17z m-1635 -28 c-9 -14 -20 -25 -25 -25 -5 0 -2 11
7 25 9 14 20 25 25 25 5 0 2 -11 -7 -25z m5804 -2 c-3 -31 -34 -44 -44 -19 -9
24 3 46 26 46 17 0 21 -5 18 -27z m-6094 2 c3 -8 1 -15 -4 -15 -6 0 -10 7 -10
15 0 8 2 15 4 15 2 0 6 -7 10 -15z m486 11 c0 -2 -7 -7 -16 -10 -8 -3 -12 -2
-9 4 6 10 25 14 25 6z m2364 -11 c-4 -8 -8 -15 -10 -15 -2 0 -4 7 -4 15 0 8 4
15 10 15 5 0 7 -7 4 -15z m-1704 -5 c0 -5 -4 -10 -10 -10 -5 0 -10 5 -10 10 0
6 5 10 10 10 6 0 10 -4 10 -10z m150 -5 c0 -8 -4 -15 -10 -15 -5 0 -7 7 -4 15
4 8 8 15 10 15 2 0 4 -7 4 -15z m4150 0 c-7 -8 -17 -15 -22 -15 -11 0 14 29
26 30 5 0 3 -7 -4 -15z m-4043 -11 c-3 -3 -12 -4 -19 -1 -8 3 -5 6 6 6 11 1
17 -2 13 -5z m978 -4 c-3 -5 -11 -10 -16 -10 -6 0 -7 5 -4 10 3 6 11 10 16 10
6 0 7 -4 4 -10z m-2030 -20 c3 -5 -1 -10 -9 -10 -9 0 -16 5 -16 10 0 6 4 10 9
10 6 0 13 -4 16 -10z m815 0 c0 -5 -4 -10 -10 -10 -5 0 -10 5 -10 10 0 6 5 10
10 10 6 0 10 -4 10 -10z m-720 -10 c0 -5 -7 -10 -16 -10 -8 0 -12 5 -9 10 3 6
10 10 16 10 5 0 9 -4 9 -10z m2207 -140 c1 -82 4 -173 7 -201 4 -37 2 -54 -9
-65 -8 -9 -15 -12 -16 -7 -3 32 -5 410 -2 416 14 24 18 -9 20 -143z m-1647
130 c0 -5 -4 -10 -10 -10 -5 0 -10 5 -10 10 0 6 5 10 10 10 6 0 10 -4 10 -10z
m876 -37 c-10 -10 -19 5 -10 18 6 11 8 11 12 0 2 -7 1 -15 -2 -18z m1028 -72
c-4 -44 -11 -81 -16 -81 -5 0 -7 8 -4 18 2 9 7 48 11 85 4 38 9 67 11 64 3 -2
2 -41 -2 -86z m-2119 55 c17 -12 7 -14 -90 -15 -108 -1 -207 -8 -252 -17 -13
-2 -23 -1 -23 4 0 11 150 31 234 31 38 0 71 3 74 6 10 9 38 5 57 -9z m1705 10
c0 -11 -19 -15 -25 -6 -3 5 1 10 9 10 9 0 16 -2 16 -4z m-40 -26 c0 -11 -4
-20 -9 -20 -5 0 -7 9 -4 20 3 11 7 20 9 20 2 0 4 -9 4 -20z m240 10 c0 -5 -4
-10 -10 -10 -5 0 -10 5 -10 10 0 6 5 10 10 10 6 0 10 -4 10 -10z m1274 1 c3
-5 0 -11 -8 -14 -15 -6 -26 1 -26 15 0 11 27 10 34 -1z m-340 -16 c-4 -8 -8
-15 -10 -15 -2 0 -4 7 -4 15 0 8 4 15 10 15 5 0 7 -7 4 -15z m-1144 1 c0 -3
-4 -8 -10 -11 -5 -3 -10 -1 -10 4 0 6 5 11 10 11 6 0 10 -2 10 -4z m207 -38
c-3 -7 -5 -2 -5 12 0 14 2 19 5 13 2 -7 2 -19 0 -25z m1274 -6 c-6 -2 -8 -9
-4 -15 4 -6 9 -29 10 -49 3 -29 0 -38 -11 -38 -13 0 -16 13 -16 64 0 43 4 66
13 69 6 2 14 -3 16 -12 2 -8 -2 -17 -8 -19z m1827 23 c-8 -8 -217 -9 -225 -2
-3 4 47 7 112 7 65 0 116 -2 113 -5z m149 -21 c-3 -3 -12 -4 -19 -1 -8 3 -5 6
6 6 11 1 17 -2 13 -5z m-1760 -71 c-4 -21 -11 -39 -17 -41 -5 -2 -10 -8 -10
-13 0 -6 4 -8 8 -5 4 2 14 1 20 -3 10 -6 10 -10 0 -19 -22 -18 -36 0 -38 48
-3 67 -2 70 21 70 19 0 21 -4 16 -37z m-400 -45 c-2 -13 -4 -3 -4 22 0 25 2
35 4 23 2 -13 2 -33 0 -45z m538 52 c-3 -5 -10 -10 -16 -10 -5 0 -9 5 -9 10 0
6 7 10 16 10 8 0 12 -4 9 -10z m170 -22 c6 -6 -1 -7 -20 -2 -16 3 -34 11 -40
16 -6 6 1 7 20 2 17 -3 35 -11 40 -16z m1004 7 c28 -14 48 -56 36 -75 -3 -6
-8 -20 -10 -32 -7 -32 -35 -55 -78 -61 -30 -5 -39 -2 -44 11 -4 9 -14 22 -22
29 -9 6 -13 15 -9 19 4 4 15 1 24 -7 15 -12 16 -11 9 11 -7 22 -6 23 8 12 9
-8 26 -12 39 -9 21 4 20 4 -4 6 -15 0 -30 6 -33 11 -4 6 -16 8 -28 5 -18 -5
-19 -4 -7 5 13 9 13 12 -3 21 -14 8 -15 14 -6 30 20 38 80 49 128 24z m-2589
-60 c0 -46 -16 -63 -22 -22 -3 18 11 67 20 67 1 0 2 -20 2 -45z m737 23 c-3
-8 -6 -5 -6 6 -1 11 2 17 5 13 3 -3 4 -12 1 -19z m1440 6 c-3 -3 -12 -4 -19
-1 -8 3 -5 6 6 6 11 1 17 -2 13 -5z m-1113 -25 c-8 -14 -24 -10 -24 6 0 9 6
12 15 9 8 -4 12 -10 9 -15z m1194 -9 c50 -36 71 -67 83 -119 22 -98 -85 -198
-301 -280 -47 -18 -96 -39 -110 -46 -28 -14 -122 -42 -160 -47 -23 -3 -25 0
-22 32 2 19 9 40 15 47 7 7 59 26 117 43 192 56 339 125 369 172 23 37 15 100
-19 158 -24 41 -27 50 -11 36 11 -11 21 -14 21 -8 0 6 -10 18 -22 26 -12 9
-18 16 -12 16 6 0 30 -13 52 -30z m-2878 -23 c0 -10 -7 -25 -15 -33 -13 -14
-15 -11 -15 24 0 21 3 42 7 45 9 9 23 -13 23 -36z m2510 -17 l0 -25 13 24 c16
32 31 31 38 -5 15 -68 11 -85 -33 -125 -75 -68 -245 -122 -306 -96 l-31 13
114 53 c140 65 185 107 185 174 0 31 3 38 10 27 5 -8 10 -26 10 -40z m-1013
18 c-3 -8 -6 -5 -6 6 -1 11 2 17 5 13 3 -3 4 -12 1 -19z m191 -6 c2 -7 -3 -12
-12 -12 -9 0 -16 7 -16 16 0 17 22 14 28 -4z m-328 -2 c0 -5 -5 -10 -11 -10
-5 0 -7 5 -4 10 3 6 8 10 11 10 2 0 4 -4 4 -10z m-1540 -10 c0 -5 -2 -10 -4
-10 -3 0 -8 5 -11 10 -3 6 -1 10 4 10 6 0 11 -4 11 -10z m1862 -45 c-2 -14 -8
-25 -13 -25 -5 0 -9 11 -9 25 0 14 6 25 14 25 9 0 12 -8 8 -25z m218 16 c0
-10 -30 -24 -37 -17 -3 3 -2 9 2 15 8 13 35 15 35 2z m-3516 -14 c22 -16 13
-41 -20 -56 -35 -16 -45 -14 -78 15 -32 28 -27 40 19 47 55 8 61 7 79 -6z
m3126 -24 c0 -7 -4 -13 -9 -13 -5 0 -8 12 -8 26 0 18 2 22 8 13 5 -8 9 -20 9
-26z m-1520 17 c0 -5 -5 -10 -11 -10 -5 0 -7 5 -4 10 3 6 8 10 11 10 2 0 4 -4
4 -10z m3653 -11 c163 -1 140 -16 -28 -18 -66 -1 -121 -6 -123 -11 -6 -16 -39
-12 -57 6 -15 15 -14 17 7 29 14 7 32 9 46 3 13 -4 83 -8 155 -9z m-2293 -11
c0 -18 -2 -20 -9 -8 -6 8 -7 18 -5 22 9 14 14 9 14 -14z m2053 5 c-7 -2 -21
-2 -30 0 -10 3 -4 5 12 5 17 0 24 -2 18 -5z m-193 -18 c-7 -9 -15 -13 -19 -10
-3 3 1 10 9 15 21 14 24 12 10 -5z m-2966 -21 c23 -9 19 -24 -6 -25 -22 -1
-22 -1 2 -8 22 -6 23 -8 7 -14 -29 -11 -46 4 -36 31 9 24 10 25 33 16z m126
-26 c0 -5 5 -6 10 -3 6 3 10 1 10 -4 0 -14 -37 -14 -45 -1 -3 6 -23 11 -43 11
-36 1 -37 1 -7 8 36 8 75 2 75 -11z m563 2 c4 -17 0 -20 -26 -19 -23 1 -26 3
-10 6 14 3 20 9 16 19 -3 8 -1 14 5 14 5 0 12 -9 15 -20z m52 -8 c19 -11 18
-11 -7 -12 -22 0 -28 5 -28 23 0 12 3 17 8 11 4 -6 16 -16 27 -22z m-1771 -7
c11 -8 16 -15 10 -15 -5 0 -18 7 -28 15 -11 8 -16 15 -10 15 5 0 18 -7 28 -15z
m1906 5 c0 -5 -4 -10 -10 -10 -5 0 -10 5 -10 10 0 6 5 10 10 10 6 0 10 -4 10
-10z m-1960 -56 c0 -2 -13 2 -30 11 -16 9 -30 18 -30 21 0 2 14 -2 30 -11 17
-9 30 -18 30 -21z m1023 19 c-7 -2 -19 -2 -25 0 -7 3 -2 5 12 5 14 0 19 -2 13
-5z m3764 -47 c4 -3 -158 -5 -358 -4 -269 2 -326 4 -219 8 170 8 569 5 577 -4z
m-774 -3 c-7 -2 -19 -2 -25 0 -7 3 -2 5 12 5 14 0 19 -2 13 -5z m151 -67 c37
-16 46 -41 46 -136 0 -62 -17 -109 -38 -102 -6 2 -12 -1 -12 -7 0 -7 -28 -11
-76 -11 -48 0 -73 4 -69 10 3 6 -1 13 -9 16 -9 3 -13 10 -10 15 3 5 -4 9 -15
9 -18 0 -20 8 -23 83 -2 45 -2 88 0 95 12 39 139 56 206 28z m-4936 -93 c-3
-32 -44 -46 -54 -19 -10 26 4 46 31 46 23 0 26 -4 23 -27z m3502 -53 c-19 -13
-30 -13 -30 0 0 6 10 10 23 10 18 0 19 -2 7 -10z m-3309 -91 c14 -23 11 -59
-6 -59 -8 0 -15 -7 -15 -15 0 -18 -1 -18 -37 -3 -15 6 -32 12 -38 12 -19 2
-18 59 1 73 22 16 83 11 95 -8z m4560 4 c13 -16 12 -17 -3 -4 -10 7 -18 15
-18 17 0 8 8 3 21 -13z m509 7 c34 0 50 -4 45 -9 -13 -13 -297 -17 -316 -5
-14 9 153 24 196 17 11 -1 45 -3 75 -3z m-1773 -62 c-3 -8 -6 -5 -6 6 -1 11 2
17 5 13 3 -3 4 -12 1 -19z m927 -111 c8 -13 5 -23 -16 -44 -23 -22 -29 -24
-42 -13 -19 15 -21 51 -4 68 15 15 49 9 62 -11z m-210 -28 c-8 -13 -24 -1 -24
18 0 13 3 13 15 3 8 -7 12 -16 9 -21z m1136 -3 c0 -2 -37 -36 -82 -76 l-83
-72 80 76 c79 75 85 80 85 72z m-2983 -43 c-20 -2 -52 -2 -70 0 -17 2 0 4 38
4 39 0 53 -2 32 -4z m2813 -107 c0 -2 -8 -10 -17 -17 -16 -13 -17 -12 -4 4 13
16 21 21 21 13z m-45 -35 c-7 -12 -119 -81 -131 -81 -7 0 122 85 134 89 2 1 1
-3 -3 -8z m-216 -59 c-5 -2 -6 -9 -3 -14 5 -7 2 -8 -5 -4 -7 5 -10 14 -7 22 3
7 1 16 -4 19 -6 4 -10 11 -10 17 0 5 9 0 19 -13 11 -13 15 -26 10 -27z m-1236
21 c-5 -12 -2 -15 8 -11 8 3 22 9 31 13 22 9 36 -38 18 -60 -17 -20 -59 -19
-82 2 -22 20 -23 31 -1 55 20 23 34 23 26 1z m120 -20 c-7 -2 -21 -2 -30 0
-10 3 -4 5 12 5 17 0 24 -2 18 -5z m105 0 c-10 -2 -26 -2 -35 0 -10 3 -2 5 17
5 19 0 27 -2 18 -5z m-95 -20 c-7 -2 -21 -2 -30 0 -10 3 -4 5 12 5 17 0 24 -2
18 -5z m135 0 c-15 -2 -42 -2 -60 0 -18 2 -6 4 27 4 33 0 48 -2 33 -4z m285 0
c-7 -2 -19 -2 -25 0 -7 3 -2 5 12 5 14 0 19 -2 13 -5z m713 -38 c-11 -8 -25
-15 -30 -15 -6 1 0 7 14 15 32 19 40 18 16 0z m-20 -72 c-33 -17 -194 -73
-210 -72 -6 0 38 17 97 39 60 21 111 41 115 44 3 3 10 6 16 6 6 -1 -2 -8 -18
-17z m-249 -29 c-3 -3 -12 -4 -19 -1 -8 3 -5 6 6 6 11 1 17 -2 13 -5z m-100
-20 c-3 -3 -12 -4 -19 -1 -8 3 -5 6 6 6 11 1 17 -2 13 -5z m-524 -31 c-7 -2
-19 -2 -25 0 -7 3 -2 5 12 5 14 0 19 -2 13 -5z m84 1 c-3 -3 -12 -4 -19 -1 -8
3 -5 6 6 6 11 1 17 -2 13 -5z m56 -1 c-7 -2 -19 -2 -25 0 -7 3 -2 5 12 5 14 0
19 -2 13 -5z m504 1 c-3 -3 -12 -4 -19 -1 -8 3 -5 6 6 6 11 1 17 -2 13 -5z
m-44 -11 c-7 -2 -19 -2 -25 0 -7 3 -2 5 12 5 14 0 19 -2 13 -5z m-50 -10 c-7
-2 -21 -2 -30 0 -10 3 -4 5 12 5 17 0 24 -2 18 -5z m-60 -10 c-7 -2 -21 -2
-30 0 -10 3 -4 5 12 5 17 0 24 -2 18 -5z m-105 -10 c-10 -2 -26 -2 -35 0 -10
3 -2 5 17 5 19 0 27 -2 18 -5z m-360 -10 c-136 -2 -361 -2 -500 0 -139 1 -28
2 247 2 275 0 389 -1 253 -2z"/>
<path d="M7647 8369 c7 -7 15 -10 18 -7 3 3 -2 9 -12 12 -14 6 -15 5 -6 -5z"/>
<path d="M3271 7961 c-10 -7 -13 -31 -12 -97 1 -49 4 -90 6 -92 2 -3 11 -2 20
1 12 5 15 22 14 74 -2 91 -10 125 -28 114z"/>
<path d="M3600 7550 c-12 -8 -11 -10 7 -10 12 0 25 5 28 10 8 13 -15 13 -35 0z"/>
<path d="M2990 7440 c-19 -16 -30 -29 -24 -30 5 0 23 14 39 30 37 38 29 39
-15 0z"/>
<path d="M3470 7461 c0 -5 5 -13 10 -16 6 -3 10 -2 10 4 0 5 -4 13 -10 16 -5
3 -10 2 -10 -4z"/>
<path d="M2890 7328 c-11 -18 -20 -43 -20 -55 0 -12 -4 -25 -10 -28 -5 -3 -10
-11 -10 -16 0 -6 4 -7 10 -4 5 3 46 8 91 10 108 6 114 15 11 15 -92 0 -93 1
-62 68 23 50 18 55 -10 10z"/>
<path d="M3465 7350 c-3 -5 3 -10 15 -10 12 0 18 5 15 10 -3 6 -10 10 -15 10
-5 0 -12 -4 -15 -10z"/>
<path d="M3725 5910 c3 -5 13 -10 21 -10 8 0 14 5 14 10 0 6 -9 10 -21 10 -11
0 -17 -4 -14 -10z"/>
<path d="M3678 5903 c6 -2 18 -2 25 0 6 3 1 5 -13 5 -14 0 -19 -2 -12 -5z"/>
<path d="M6288 7693 c6 -2 18 -2 25 0 6 3 1 5 -13 5 -14 0 -19 -2 -12 -5z"/>
<path d="M6252 7310 c0 -19 2 -27 5 -17 2 9 2 25 0 35 -3 9 -5 1 -5 -18z"/>
<path d="M6239 7133 c-2 -155 2 -337 7 -342 2 -2 4 98 4 222 0 125 -2 227 -5
227 -3 0 -5 -48 -6 -107z"/>
<path d="M5468 7213 c7 -3 16 -2 19 1 4 3 -2 6 -13 5 -11 0 -14 -3 -6 -6z"/>
<path d="M5285 7200 c-3 -5 -2 -10 4 -10 5 0 13 5 16 10 3 6 2 10 -4 10 -5 0
-13 -4 -16 -10z"/>
<path d="M5575 7165 c-40 -14 -40 -14 -5 -8 19 3 42 9 50 14 22 12 1 9 -45 -6z"/>
<path d="M6210 7071 c0 -11 4 -22 9 -25 4 -3 6 6 3 19 -5 30 -12 33 -12 6z"/>
<path d="M6164 6820 c0 -58 1 -81 3 -52 2 28 2 76 0 105 -2 28 -3 5 -3 -53z"/>
<path d="M6241 6624 c0 -11 3 -14 6 -6 3 7 2 16 -1 19 -3 4 -6 -2 -5 -13z"/>
<path d="M6163 5715 c0 -22 2 -30 4 -17 2 12 2 30 0 40 -3 9 -5 -1 -4 -23z"/>
<path d="M3970 7664 c0 -5 7 -19 15 -30 8 -10 15 -14 15 -8 0 5 -7 19 -15 30
-8 10 -15 14 -15 8z"/>
<path d="M5720 7520 c-13 -9 -13 -10 0 -9 8 0 24 4 35 9 l20 9 -20 0 c-11 0
-27 -4 -35 -9z"/>
<path d="M8423 4920 c0 -25 2 -35 4 -22 2 12 2 32 0 45 -2 12 -4 2 -4 -23z"/>
<path d="M8423 4680 c0 -25 2 -35 4 -22 2 12 2 32 0 45 -2 12 -4 2 -4 -23z"/>
<path d="M8423 4595 c0 -22 2 -30 4 -17 2 12 2 30 0 40 -3 9 -5 -1 -4 -23z"/>
<path d="M8421 4534 c0 -11 3 -14 6 -6 3 7 2 16 -1 19 -3 4 -6 -2 -5 -13z"/>
<path d="M8441 4514 c0 -11 3 -14 6 -6 3 7 2 16 -1 19 -3 4 -6 -2 -5 -13z"/>
<path d="M8443 4330 c0 -25 2 -35 4 -22 2 12 2 32 0 45 -2 12 -4 2 -4 -23z"/>
<path d="M6426 5151 c-4 -7 -5 -15 -2 -18 9 -9 19 4 14 18 -4 11 -6 11 -12 0z"/>
<path d="M6050 4470 c-8 -5 -11 -12 -8 -15 4 -4 17 0 30 9 24 17 5 23 -22 6z"/>
<path d="M5878 4387 c-16 -6 -28 -15 -28 -20 0 -9 25 -3 74 19 29 12 30 13 6
13 -14 -1 -37 -6 -52 -12z"/>
<path d="M8260 5875 c7 -9 15 -13 17 -11 7 7 -7 26 -19 26 -6 0 -6 -6 2 -15z"/>
<path d="M2221 5340 c0 -14 4 -34 9 -45 8 -18 9 -18 9 5 0 14 -4 34 -9 45 -8
18 -9 18 -9 -5z"/>
<path d="M7105 5130 c-3 -5 -1 -10 4 -10 6 0 11 5 11 10 0 6 -2 10 -4 10 -3 0
-8 -4 -11 -10z"/>
<path d="M7780 4870 c-8 -5 -12 -12 -9 -15 4 -3 12 1 19 10 14 17 11 19 -10 5z"/>
<path d="M7700 4855 c0 -8 2 -15 4 -15 2 0 6 7 10 15 3 8 1 15 -4 15 -6 0 -10
-7 -10 -15z"/>
<path d="M7850 4740 c0 -40 3 -71 6 -68 7 8 7 128 0 136 -4 3 -6 -28 -6 -68z"/>
<path d="M7768 4738 c-2 -7 -1 -26 3 -43 6 -28 7 -26 8 13 1 42 -3 53 -11 30z"/>
<path d="M6775 5030 c-3 -5 1 -10 9 -10 9 0 16 5 16 10 0 6 -4 10 -9 10 -6 0
-13 -4 -16 -10z"/>
<path d="M8190 5052 c0 -60 7 -82 26 -82 17 0 26 35 22 86 -2 32 -7 40 -25 42
-21 3 -23 0 -23 -46z"/>
<path d="M6211 4867 c-8 -12 -20 -31 -26 -42 -9 -13 -10 -27 -4 -40 l9 -20 -3
20 c-2 11 8 37 21 58 13 22 22 41 20 42 -2 2 -10 -6 -17 -18z"/>
<path d="M8192 4768 c2 -48 7 -63 18 -63 11 0 16 15 18 63 3 57 1 62 -18 62
-19 0 -21 -5 -18 -62z"/>
<path d="M7670 4446 c0 -36 5 -68 10 -71 6 -4 10 18 10 59 0 36 -4 68 -10 71
-6 4 -10 -18 -10 -59z"/>
<path d="M5345 4150 c3 -5 8 -10 11 -10 2 0 4 5 4 10 0 6 -5 10 -11 10 -5 0
-7 -4 -4 -10z"/>
<path d="M4685 3680 c-4 -12 -5 -24 -2 -27 3 -2 8 5 12 17 4 12 5 24 2 27 -3
2 -8 -5 -12 -17z"/>
<path d="M6900 3610 c0 -7 -7 -10 -15 -6 -8 3 -21 -2 -30 -10 -8 -9 -15 -11
-15 -5 0 6 -4 11 -8 11 -5 0 -10 -33 -11 -72 -1 -42 -7 -76 -14 -81 -29 -21
230 14 263 35 12 8 12 9 -2 4 -15 -4 -18 1 -17 32 0 27 2 32 8 18 7 -18 8 -18
14 -2 4 10 7 26 7 37 0 18 13 23 49 22 7 -1 9 2 5 7 -5 4 -47 10 -94 13 -47 3
-77 4 -67 1 18 -6 22 -19 8 -28 -5 -4 -12 0 -14 6 -4 8 -6 7 -6 -4 -1 -13 6
-15 42 -10 40 5 41 4 27 -13 -8 -10 -14 -20 -12 -22 1 -1 2 -13 1 -25 0 -22
-1 -22 -8 -3 -5 11 -6 26 -3 34 4 11 -2 13 -32 8 -37 -6 -37 -6 -34 26 2 27
-1 33 -19 35 -13 2 -23 -2 -23 -8z m63 -123 c-9 -16 -26 12 -18 30 7 17 8 17
15 -2 4 -11 5 -24 3 -28z"/>
<path d="M2900 3560 c36 -12 62 -12 55 0 -3 6 -23 10 -43 9 -33 -1 -34 -2 -12
-9z"/>
<path d="M6745 3553 c-16 -9 -52 -27 -80 -41 -27 -14 -53 -31 -58 -38 -4 -7
-14 -11 -22 -8 -8 4 -15 2 -15 -4 0 -6 -17 -16 -37 -22 -21 -7 -42 -17 -48
-22 -10 -9 4 -9 220 8 l75 6 0 69 c0 38 -1 69 -2 68 -2 0 -16 -8 -33 -16z"/>
<path d="M3408 3393 c7 -3 16 -2 19 1 4 3 -2 6 -13 5 -11 0 -14 -3 -6 -6z"/>
<path d="M3500 3396 c0 -2 7 -7 16 -10 8 -3 12 -2 9 4 -6 10 -25 14 -25 6z"/>
<path d="M4475 3370 c3 -5 8 -10 11 -10 2 0 4 5 4 10 0 6 -5 10 -11 10 -5 0
-7 -4 -4 -10z"/>
<path d="M6680 2970 c-12 -8 -11 -10 7 -10 12 0 25 5 28 10 8 13 -15 13 -35 0z"/>
<path d="M7461 3184 c0 -11 3 -14 6 -6 3 7 2 16 -1 19 -3 4 -6 -2 -5 -13z"/>
<path d="M6891 3174 c0 -11 3 -14 6 -6 3 7 2 16 -1 19 -3 4 -6 -2 -5 -13z"/>
<path d="M6875 3139 c-4 -6 -5 -12 -2 -15 2 -3 7 2 10 11 7 17 1 20 -8 4z"/>
<path d="M7621 2881 c-42 -12 -58 -20 -47 -24 17 -7 15 -28 -6 -87 -13 -36
-27 -8 -30 60 -1 48 -2 45 -7 -25 -8 -107 -6 -115 33 -114 l31 0 -25 12 c-22
10 -17 12 48 15 l72 3 0 89 c0 50 -1 90 -2 89 -2 -1 -32 -9 -67 -18z"/>
</g>
</svg>
